<?xml version="1.0" standalone="no"?>
<!DOCTYPE svg PUBLIC "-//W3C//DTD SVG 20010904//EN"
 "http://www.w3.org/TR/2001/REC-SVG-20010904/DTD/svg10.dtd">
<svg version="1.0" xmlns="http://www.w3.org/2000/svg"
 width="500.000000pt" height="500.000000pt" viewBox="0 0 500.000000 500.000000"
 preserveAspectRatio="xMidYMid meet">
<metadata>
Created by potrace 1.11, written by Peter Selinger 2001-2013
</metadata>
<g transform="translate(0.000000,500.000000) scale(0.100000,-0.100000)"
fill="#000000" stroke="none">
<path d="M2510 4963 c0 -5 -15 -9 -32 -8 -18 0 -35 -2 -38 -5 -3 -3 -14 -10
-24 -16 -29 -16 -55 -55 -61 -93 -3 -19 -8 -38 -11 -43 -3 -4 -2 -8 3 -8 4 0
8 -13 8 -30 0 -16 -3 -30 -6 -30 -4 0 -3 -18 1 -40 4 -22 4 -40 1 -40 -3 0 -4
-31 -1 -70 3 -38 3 -70 -1 -70 -3 0 -3 -22 1 -50 4 -27 3 -50 0 -50 -4 0 -4
-18 0 -40 4 -22 4 -40 1 -40 -3 0 -4 -31 -1 -70 3 -38 3 -70 -1 -70 -3 0 -3
-22 1 -50 4 -27 3 -50 0 -50 -4 0 -4 -18 0 -40 4 -22 4 -40 1 -40 -3 0 -4 -31
-1 -70 3 -38 3 -70 -1 -70 -3 0 -3 -22 1 -50 4 -27 3 -50 0 -50 -4 0 -4 -18 0
-40 4 -22 4 -40 1 -40 -3 0 -4 -31 -1 -70 3 -38 3 -70 -1 -70 -3 0 -3 -22 1
-50 4 -27 3 -50 0 -50 -4 0 -4 -18 0 -40 4 -22 4 -40 1 -40 -3 0 -4 -31 -1
-70 3 -38 3 -70 -1 -70 -3 0 -3 -22 1 -50 4 -27 3 -50 0 -50 -4 0 -4 -18 0
-40 4 -22 4 -40 1 -40 -3 0 -4 -31 -1 -70 3 -38 3 -70 -1 -70 -3 0 -3 -22 1
-50 4 -27 3 -50 0 -50 -4 0 -4 -18 0 -40 4 -22 4 -40 1 -40 -3 0 -4 -31 -1
-70 3 -38 3 -70 -1 -70 -3 0 -3 -22 1 -50 4 -28 2 -50 -2 -50 -5 0 -7 -4 -4
-8 3 -5 6 -51 7 -103 3 -110 19 -146 75 -173 45 -21 137 -23 184 -3 58 25 83
64 84 130 1 15 5 27 9 27 5 0 5 6 0 13 -4 6 -8 570 -8 1252 -1 970 -3 1245
-13 1262 -12 21 -63 55 -78 52 -4 0 -11 5 -15 13 -7 10 -9 10 -9 0 0 -10 -5
-10 -20 -2 -11 6 -20 8 -20 4 0 -3 -7 -1 -15 6 -8 7 -15 8 -15 3z"/>
<path d="M1230 4142 c-26 -13 -50 -32 -78 -67 -7 -8 -10 -15 -6 -15 3 0 2 -6
-3 -12 -9 -11 -9 -45 -1 -118 0 -8 10 -23 21 -32 11 -10 17 -18 13 -18 -4 0 2
-13 13 -29 11 -15 18 -31 14 -35 -3 -3 -2 -6 3 -6 5 0 18 -20 29 -45 11 -25
24 -45 28 -45 5 0 6 -4 2 -9 -3 -5 -1 -12 5 -16 27 -16 61 -145 39 -145 -6 0
-8 -4 -5 -9 3 -5 -6 -21 -19 -35 -14 -15 -25 -32 -25 -37 0 -6 -4 -7 -10 -4
-5 3 -10 1 -10 -4 0 -16 -78 -91 -98 -94 -9 -1 -23 -6 -29 -10 -7 -5 -13 -4
-13 0 0 5 -14 9 -32 10 -18 0 -34 6 -36 12 -2 6 -10 11 -18 11 -8 0 -22 4 -32
9 -35 18 -77 34 -84 33 -5 -1 -8 2 -8 8 0 5 -9 10 -19 10 -11 0 -26 7 -34 15
-8 8 -17 12 -20 9 -3 -4 -12 -2 -19 2 -59 38 -130 36 -188 -6 -57 -41 -80
-130 -51 -194 18 -38 76 -95 99 -96 6 0 12 -8 12 -17 0 -9 3 -14 6 -10 4 3 12
1 19 -6 7 -7 23 -19 35 -27 13 -8 33 -25 46 -38 13 -13 24 -20 24 -16 0 4 9
-3 20 -16 11 -13 20 -20 20 -16 0 14 38 -30 51 -59 16 -33 17 -54 6 -72 -5 -7
-6 -13 -2 -13 3 0 -2 -16 -10 -36 -8 -20 -12 -40 -9 -45 3 -5 1 -9 -3 -9 -5 0
-10 -10 -10 -22 -1 -13 -7 -24 -13 -26 -5 -2 -10 -11 -10 -20 0 -9 -17 -26
-38 -38 -31 -16 -55 -20 -125 -20 -48 1 -87 -1 -87 -4 0 -3 -43 -5 -97 -4
-119 1 -148 -11 -200 -81 -17 -23 -27 -90 -18 -112 5 -10 9 -24 11 -31 6 -32
75 -88 117 -96 15 -3 35 -7 45 -10 9 -3 28 -7 42 -10 14 -3 43 -10 64 -15 22
-5 44 -8 48 -5 4 3 8 1 8 -3 0 -5 12 -10 26 -11 15 -1 34 -8 42 -15 8 -6 18
-11 21 -10 14 6 48 -12 68 -36 21 -24 26 -39 26 -83 0 -10 2 -18 6 -18 12 0 6
-149 -7 -162 -6 -6 -12 -17 -12 -24 0 -12 -112 -74 -135 -74 -7 0 -18 -7 -25
-15 -7 -8 -16 -12 -21 -9 -5 3 -9 0 -9 -7 0 -7 -3 -9 -7 -6 -3 4 -15 0 -25
-10 -10 -9 -18 -13 -18 -9 0 4 -20 -4 -44 -18 -24 -13 -46 -23 -48 -20 -5 4
-63 -58 -61 -66 0 -3 -5 -13 -12 -24 -8 -10 -11 -25 -8 -32 3 -8 -1 -22 -8
-31 -10 -12 -10 -15 -2 -9 9 5 13 0 13 -14 0 -25 18 -58 45 -83 25 -24 75 -50
75 -40 0 5 5 1 10 -7 5 -8 10 -10 10 -5 0 6 17 11 38 12 49 3 137 18 137 23 0
1 16 3 35 5 19 2 37 4 40 5 3 2 10 4 15 5 6 2 12 4 15 5 20 8 109 14 130 9 21
-6 90 -78 90 -95 0 -8 4 -14 8 -14 5 0 14 -16 22 -35 8 -19 18 -35 23 -35 5 0
7 -7 3 -15 -3 -8 -2 -15 3 -15 5 0 6 -16 4 -37 -4 -37 -37 -93 -54 -93 -6 0
-7 -5 -4 -10 3 -5 2 -10 -3 -10 -5 0 -20 -16 -33 -35 -13 -19 -30 -35 -37 -35
-6 0 -11 -3 -10 -7 3 -8 -26 -45 -70 -89 -12 -13 -22 -28 -22 -34 0 -6 -6 -13
-13 -16 -16 -6 -18 -18 -18 -92 -1 -128 135 -192 253 -120 26 16 48 34 48 39
0 5 6 9 14 9 8 0 21 6 28 13 7 6 40 30 73 52 33 22 68 48 79 57 10 10 23 15
27 12 4 -2 11 1 14 7 4 5 13 8 21 5 8 -3 14 0 14 7 0 8 4 6 10 -3 5 -8 10 -12
10 -7 0 9 59 -20 77 -39 8 -7 27 -21 43 -31 17 -9 30 -21 30 -25 0 -4 6 -8 13
-8 17 0 55 -71 51 -95 -2 -11 -5 -36 -6 -56 -2 -21 -6 -35 -10 -32 -7 3 -9 -5
-8 -32 0 -3 -7 -19 -15 -35 -9 -17 -13 -30 -9 -30 4 0 0 -7 -7 -17 -8 -9 -13
-19 -12 -22 2 -3 -4 -31 -14 -61 -37 -124 -14 -198 74 -242 25 -13 101 -18
111 -8 2 3 16 7 31 9 9 1 61 47 61 55 0 2 18 33 40 67 22 35 43 71 47 79 3 8
19 34 35 58 16 23 26 42 22 42 -4 0 11 18 34 40 45 44 74 51 148 35 16 -4 39
-7 52 -8 12 -1 22 -5 22 -10 0 -4 4 -6 9 -2 12 7 61 -15 61 -27 0 -5 5 -6 11
-3 6 4 13 -2 16 -14 3 -12 10 -21 15 -21 6 0 8 -7 4 -15 -3 -8 -1 -15 3 -15 5
0 7 -9 4 -20 -3 -11 -1 -20 3 -20 5 0 9 -12 9 -27 1 -24 5 -71 20 -198 2 -16
4 -32 5 -35 1 -3 2 -13 1 -22 -1 -10 2 -18 6 -18 5 0 9 -10 10 -21 4 -49 87
-102 153 -98 49 4 109 35 122 64 6 13 14 22 19 20 4 -3 5 4 2 15 -3 11 -1 20
3 20 5 0 10 12 10 28 3 67 20 192 28 200 3 2 1 13 -5 23 -6 12 -6 19 0 19 5 0
8 12 6 26 -1 14 3 31 10 37 6 7 10 17 8 23 -5 15 36 66 48 59 5 -4 9 -2 9 3 0
6 15 13 33 16 17 3 43 9 57 12 50 11 95 19 110 18 28 -2 65 -22 80 -44 8 -12
20 -28 26 -34 6 -6 11 -15 12 -21 1 -5 8 -17 16 -26 8 -9 17 -26 21 -38 3 -12
11 -21 16 -21 5 0 9 -9 9 -20 0 -11 4 -20 9 -20 5 0 19 -21 32 -47 22 -46 79
-115 79 -97 0 5 5 2 10 -6 5 -8 13 -15 17 -16 4 0 15 -3 23 -7 23 -9 52 -7 95
6 67 20 101 73 103 160 0 35 -3 57 -10 57 -6 0 -9 3 -5 6 3 3 -3 30 -13 60
-11 30 -17 54 -14 54 2 0 -3 14 -12 31 -8 17 -13 40 -11 51 3 11 3 17 0 14
-10 -9 -31 60 -31 100 0 18 4 34 10 34 5 0 7 4 4 8 -7 11 23 43 69 77 22 15
45 33 50 39 38 41 130 53 164 21 10 -8 23 -15 29 -15 6 0 15 -6 19 -14 4 -7
22 -20 38 -29 26 -13 40 -23 91 -66 7 -5 15 -7 18 -4 3 4 6 1 6 -5 0 -7 7 -12
15 -12 8 0 15 -4 15 -10 0 -12 55 -41 64 -33 3 4 6 1 6 -5 0 -14 78 -16 112
-3 35 14 67 45 87 86 27 56 15 125 -30 175 -16 17 -29 33 -29 35 0 4 -60 73
-106 121 -12 13 -19 25 -16 28 3 3 0 6 -7 6 -6 0 -25 21 -42 48 -21 34 -29 57
-27 82 2 19 6 37 9 40 3 3 22 34 42 70 46 81 54 91 95 113 21 12 32 14 32 6 0
-8 3 -9 13 0 8 6 16 8 19 6 3 -3 18 -8 34 -10 16 -3 49 -9 74 -14 25 -5 48 -7
52 -5 5 3 8 1 8 -3 0 -5 14 -10 30 -11 17 -1 57 -9 90 -16 36 -9 60 -10 60 -5
0 6 5 7 10 4 21 -13 96 34 118 74 12 21 19 41 15 44 -3 4 -2 12 4 19 8 12 10
30 3 43 -1 3 -3 14 -4 25 0 12 -8 25 -16 30 -8 5 -11 10 -6 10 5 0 -2 10 -15
21 -24 22 -205 113 -213 107 -2 -2 -13 5 -23 15 -11 9 -23 14 -26 10 -4 -3 -7
-1 -7 5 0 7 -7 12 -16 12 -15 0 -65 30 -91 56 -13 12 -33 80 -26 87 2 3 6 31
9 63 2 33 6 71 10 86 8 40 48 80 94 93 8 2 64 15 85 20 11 2 35 9 54 14 19 6
37 8 42 6 4 -3 10 -1 14 5 4 6 11 8 16 5 5 -4 9 -2 9 3 0 5 8 9 18 9 33 -1 91
15 103 29 6 8 15 14 20 14 8 0 50 37 48 43 0 1 5 15 11 31 9 24 9 83 0 94 -2
1 -3 6 -4 12 0 5 -9 19 -18 30 -10 11 -18 24 -18 28 0 5 -17 17 -37 27 -30 15
-63 19 -163 21 -204 2 -254 7 -281 23 -14 9 -26 20 -27 25 0 5 -6 12 -13 17
-7 4 -14 15 -15 25 -2 10 -7 27 -12 39 -29 64 -45 140 -33 160 3 6 6 16 8 24
2 13 27 38 81 79 13 9 32 25 43 35 10 9 23 17 29 17 6 0 10 4 10 8 0 4 12 15
28 24 15 9 41 28 57 42 17 14 33 26 37 26 6 0 52 68 54 80 0 3 4 13 9 24 5 11
3 21 -5 26 -9 5 -9 9 -1 14 6 4 8 13 4 19 -7 11 -8 15 -12 35 -4 24 -90 93
-116 92 -3 0 -6 0 -7 1 -20 6 -38 6 -38 -1 0 -5 -8 -7 -17 -5 -10 1 -22 0 -28
-4 -5 -3 -12 -6 -15 -7 -8 -1 -41 -15 -99 -41 -29 -13 -58 -25 -65 -26 -6 -1
-14 -6 -17 -10 -3 -5 -12 -9 -20 -10 -8 -2 -20 -6 -26 -10 -12 -7 -29 -12 -70
-21 -7 -1 -15 -5 -19 -9 -25 -24 -174 104 -211 181 -14 29 -14 35 -2 43 8 5 9
9 2 9 -6 0 -10 6 -9 13 3 25 29 77 37 77 5 0 9 8 9 18 0 10 9 28 19 39 11 12
17 24 14 27 -4 3 -1 6 6 6 7 0 10 4 7 9 -3 5 2 19 12 32 57 75 88 178 71 239
-6 23 -76 90 -93 90 -9 0 -16 4 -16 8 0 13 -104 5 -108 -7 -2 -6 -10 -11 -17
-11 -7 0 -31 -18 -52 -41 -21 -23 -62 -66 -90 -96 -29 -30 -53 -59 -53 -64 0
-6 -4 -8 -9 -4 -5 3 -12 -3 -15 -12 -15 -47 -137 -90 -173 -61 -17 13 -111 17
-153 5 -50 -13 -120 -73 -141 -121 -21 -49 -32 -123 -18 -131 5 -4 7 -11 3
-16 -9 -15 17 -70 50 -107 31 -33 141 -112 157 -112 5 0 9 -3 9 -8 0 -4 12
-13 28 -20 73 -33 236 -194 350 -347 28 -37 70 -114 65 -119 -4 -3 -2 -6 4 -6
6 0 20 -24 32 -52 12 -29 26 -62 31 -73 5 -11 15 -40 21 -65 7 -25 16 -49 19
-55 4 -5 6 -20 5 -32 -1 -13 1 -23 5 -23 4 0 7 -6 7 -12 2 -47 17 -145 23
-157 4 -8 4 -25 -1 -38 -5 -14 -4 -25 2 -29 7 -4 6 -10 -1 -19 -8 -10 -8 -15
1 -20 8 -6 7 -10 -2 -16 -8 -5 -9 -9 -3 -9 6 0 10 -10 8 -22 -1 -13 -3 -23 -4
-23 -1 0 -3 -22 -5 -50 -5 -65 -10 -96 -31 -193 -3 -15 -8 -39 -11 -54 -3 -16
-10 -28 -15 -28 -5 0 -7 -4 -4 -9 3 -5 -5 -34 -19 -65 -14 -31 -22 -56 -18
-56 3 0 -1 -8 -10 -18 -10 -10 -14 -22 -11 -25 4 -4 -1 -9 -10 -13 -9 -3 -14
-10 -11 -15 3 -4 -10 -31 -30 -59 -19 -27 -35 -53 -35 -56 0 -7 -78 -104 -97
-120 -7 -6 -10 -14 -6 -17 3 -4 -1 -7 -11 -7 -9 0 -15 -3 -13 -7 5 -10 -39
-54 -46 -47 -3 3 -8 -4 -12 -15 -3 -11 -15 -23 -25 -26 -11 -3 -27 -16 -37
-29 -10 -12 -37 -35 -61 -51 -23 -15 -42 -32 -42 -37 0 -5 -4 -7 -8 -4 -5 3
-18 -3 -28 -12 -10 -10 -46 -31 -79 -47 -33 -17 -61 -33 -63 -37 -2 -4 -19
-10 -38 -14 -19 -3 -34 -10 -34 -15 0 -5 -3 -8 -7 -7 -8 2 -112 -27 -143 -39
-8 -3 -27 -6 -42 -6 -16 0 -28 -4 -28 -8 0 -5 -13 -7 -30 -5 -16 2 -32 1 -36
-3 -3 -3 -31 -7 -62 -8 -31 -1 -59 -2 -62 -3 -11 -4 -109 -1 -175 5 -38 4 -80
7 -92 8 -13 1 -23 4 -23 7 0 3 -16 7 -35 8 -19 2 -66 13 -105 26 -38 13 -70
21 -70 18 0 -4 -4 -2 -8 5 -4 6 -16 13 -27 15 -11 1 -22 5 -25 8 -12 12 -51
30 -65 30 -8 0 -15 5 -15 11 0 5 -4 8 -9 4 -6 -3 -14 3 -20 12 -6 10 -11 15
-11 10 0 -4 -19 5 -42 20 -145 94 -297 245 -393 389 -30 46 -55 86 -55 89 0 4
-9 19 -20 35 -11 15 -17 30 -14 33 4 3 -1 13 -10 22 -9 9 -16 25 -16 36 0 10
-5 19 -11 19 -6 0 -9 9 -6 20 3 11 1 20 -5 20 -5 0 -7 4 -3 9 3 5 1 12 -4 15
-5 3 -12 23 -16 43 -5 21 -9 43 -11 48 -23 95 -28 153 -27 300 1 137 6 205 17
255 4 14 9 38 11 54 3 16 14 52 24 82 11 29 16 55 13 58 -3 3 1 6 8 6 7 0 10
3 7 7 -4 3 1 15 10 26 10 11 12 17 6 13 -9 -5 -11 -2 -7 8 3 9 10 16 15 16 5
0 8 3 7 8 -3 10 37 85 80 152 20 30 35 58 34 63 -1 4 6 7 15 7 9 0 14 3 10 6
-3 3 4 18 16 32 43 53 194 202 205 202 6 0 12 3 14 8 5 10 78 64 78 57 0 -4 7
1 16 9 8 9 36 28 62 43 26 15 50 32 54 38 4 5 8 6 8 2 0 -16 66 57 85 92 21
41 24 130 7 181 -14 39 -63 100 -81 100 -7 0 -9 5 -6 10 3 6 -3 10 -14 10 -12
0 -21 4 -21 9 0 8 -75 27 -91 23 -4 -1 -23 -2 -43 -4 -20 -1 -36 -5 -36 -9 0
-4 -22 -7 -50 -6 -27 1 -50 6 -50 10 0 5 -4 5 -10 2 -5 -3 -10 -1 -10 5 0 6
-3 9 -7 7 -10 -5 -43 30 -36 37 4 3 -2 6 -12 6 -10 0 -16 2 -13 5 3 3 -18 30
-46 59 -28 30 -73 77 -100 105 -27 28 -59 54 -72 57 -13 4 -24 9 -24 13 0 12
-81 7 -110 -7z"/>
</g>
</svg>
