<?xml version="1.0" standalone="no"?>
<!DOCTYPE svg PUBLIC "-//W3C//DTD SVG 20010904//EN"
 "http://www.w3.org/TR/2001/REC-SVG-20010904/DTD/svg10.dtd">
<svg version="1.0" xmlns="http://www.w3.org/2000/svg"
 width="506.000000pt" height="506.000000pt" viewBox="0 0 506.000000 506.000000"
 preserveAspectRatio="xMidYMid meet">
<metadata>
Created by potrace 1.11, written by Peter Selinger 2001-2013
</metadata>
<g transform="translate(0.000000,506.000000) scale(0.100000,-0.100000)"
fill="#000000" stroke="none">
<path d="M1155 4696 c-16 -8 -45 -30 -64 -50 -28 -29 -35 -45 -39 -90 -5 -64
10 -102 117 -290 75 -132 86 -162 72 -199 -13 -35 -126 -162 -165 -186 -18
-12 -47 -21 -63 -21 -17 0 -95 29 -175 64 -230 102 -260 107 -341 57 -67 -42
-94 -135 -59 -213 16 -38 42 -62 175 -161 171 -127 193 -154 184 -221 -12 -82
-48 -177 -82 -214 l-33 -37 -204 -7 c-112 -3 -214 -9 -228 -14 -99 -29 -151
-158 -99 -243 42 -69 79 -86 293 -130 196 -41 229 -66 247 -186 15 -91 8 -169
-17 -196 -10 -12 -86 -55 -169 -95 -201 -98 -223 -112 -252 -161 -50 -85 -20
-188 67 -233 47 -24 79 -25 182 -4 44 9 81 14 84 12 2 -3 -8 -36 -22 -74 l-26
-69 148 -142 148 -142 -32 -43 c-98 -131 -97 -128 -97 -200 0 -52 5 -73 21
-94 39 -52 70 -69 132 -68 70 0 95 13 274 138 106 75 144 96 170 96 53 0 129
-42 201 -111 52 -50 67 -71 67 -93 0 -16 -21 -95 -46 -175 -25 -80 -50 -160
-55 -177 -20 -67 1 -155 48 -195 46 -40 137 -50 193 -21 35 19 92 92 130 167
36 72 135 209 160 223 26 13 103 11 190 -6 100 -19 135 -60 150 -176 35 -268
43 -314 58 -341 42 -74 169 -96 250 -43 35 24 40 32 55 104 10 44 27 144 38
224 12 80 25 153 30 162 24 46 149 88 259 88 41 0 50 -5 86 -43 49 -52 65 -76
138 -202 87 -149 117 -175 201 -175 81 0 141 48 165 133 11 41 10 55 -10 129
-12 46 -37 128 -56 183 -19 56 -34 115 -34 133 0 40 54 101 146 167 52 38 70
45 109 45 42 0 58 -8 178 -92 73 -50 147 -102 166 -115 27 -18 47 -23 97 -23
104 0 157 44 170 143 9 62 -18 116 -107 212 -147 158 -185 220 -173 273 13 52
83 179 114 205 46 39 81 41 225 13 72 -14 142 -26 157 -26 15 0 30 -4 33 -10
20 -32 151 11 188 61 49 67 41 170 -18 224 -18 16 -100 59 -182 95 -119 52
-157 74 -195 112 -55 54 -58 73 -34 202 18 91 35 120 86 140 66 26 280 86 309
86 41 0 113 41 138 79 51 76 20 201 -60 243 -39 21 -58 23 -242 26 l-199 4
-46 38 c-41 34 -48 47 -73 132 -28 95 -27 121 2 176 6 11 76 68 156 127 80 59
154 118 165 132 32 41 42 95 29 148 -15 58 -55 99 -118 120 l-49 16 -93 -36
c-51 -19 -139 -56 -195 -80 -57 -25 -115 -45 -129 -45 -44 0 -81 26 -154 110
-100 113 -100 122 19 340 50 91 93 180 96 198 7 38 -10 108 -34 138 -48 58
-151 77 -219 41 -17 -9 -86 -76 -153 -149 -82 -90 -135 -139 -162 -152 -39
-17 -45 -17 -100 -2 -75 21 -143 20 -193 -3 -104 -47 -148 -121 -147 -245 1
-69 -1 -77 -16 -73 -9 3 -56 17 -105 31 -48 14 -161 36 -251 47 l-164 22 -177
-22 c-97 -12 -188 -26 -201 -32 -14 -5 -34 -9 -45 -9 -15 0 -18 5 -13 24 7 30
-29 140 -61 182 -14 18 -54 47 -90 65 -53 26 -71 30 -107 25 -24 -4 -76 -9
-116 -12 l-73 -6 -152 155 c-123 126 -160 157 -192 166 -51 14 -73 13 -110 -3z
m1504 -820 c57 -19 110 -41 117 -48 7 -8 16 -54 20 -111 l7 -99 -54 27 c-93
47 -309 179 -309 190 0 6 12 27 26 48 31 46 38 46 193 -7z m-679 25 c0 -5 -18
-25 -40 -44 -39 -33 -42 -47 -10 -47 9 0 27 -18 40 -39 18 -28 34 -41 55 -45
17 -3 89 -15 162 -27 73 -12 138 -26 145 -30 8 -5 -5 -26 -46 -69 l-59 -61 99
-58 99 -57 5 92 c3 51 7 95 10 97 10 10 310 -126 310 -140 0 -8 -77 -75 -103
-89 -18 -10 -16 -13 27 -34 25 -13 46 -27 46 -30 0 -4 -38 -40 -84 -81 -77
-68 -85 -79 -96 -126 -9 -41 -20 -60 -56 -93 l-45 -42 15 -62 c21 -81 20 -88
-6 -84 -14 2 -30 21 -49 59 l-28 55 -78 -13 c-101 -17 -112 -21 -150 -49 -39
-29 -49 -73 -33 -133 9 -35 18 -45 47 -57 46 -20 75 -15 90 15 15 31 34 42 62
34 20 -5 22 -10 17 -42 -16 -88 -16 -86 41 -89 l52 -3 3 -51 3 -50 77 -28 78
-28 37 59 c21 32 45 59 54 59 19 0 427 -86 451 -95 9 -3 25 -18 37 -33 11 -15
26 -34 33 -44 9 -11 52 -23 132 -37 66 -12 124 -25 130 -31 32 -32 -56 -237
-171 -400 -79 -111 -383 -421 -485 -493 l-66 -48 -36 18 c-20 9 -36 19 -36 22
0 3 27 109 59 235 l59 228 -37 15 c-97 40 -103 45 -172 152 -38 59 -69 117
-69 131 0 14 13 61 30 103 16 43 30 84 30 91 0 7 -129 68 -287 136 -159 68
-294 128 -301 134 -14 10 -84 145 -95 181 -5 15 10 39 58 94 92 106 91 121
-17 224 -87 84 -115 101 -154 91 l-24 -6 15 43 c23 65 45 202 45 282 l0 70
-37 -6 c-107 -17 -146 -19 -140 -10 3 5 54 41 111 79 58 38 106 71 106 74 0 3
-20 4 -45 2 -27 -3 -45 0 -45 6 0 13 49 51 100 78 19 10 42 24 50 30 25 20 80
30 80 15z m440 -44 c0 -12 -8 -33 -17 -47 -9 -13 -13 -25 -7 -27 5 -2 45 -23
89 -46 79 -42 80 -43 83 -85 2 -23 0 -42 -3 -42 -4 0 -31 7 -61 16 -42 12 -55
21 -60 40 -3 13 -9 24 -13 24 -21 1 -334 60 -338 64 -7 7 63 40 147 69 41 14
91 33 110 41 51 22 70 20 70 -7z m824 -81 c50 -35 98 -72 107 -82 37 -42 130
-256 117 -269 -2 -3 -133 69 -147 81 -2 2 4 16 14 30 17 27 17 28 -6 46 -69
53 -94 80 -143 153 -71 107 -70 105 -51 105 10 0 58 -29 109 -64z m-95 -38
c23 -16 23 -17 5 -42 -11 -14 -21 -26 -24 -26 -6 0 -110 116 -110 124 0 7 102
-37 129 -56z m367 -206 c19 -12 100 -125 141 -199 78 -137 153 -358 153 -448
0 -33 -8 -48 -41 -83 -23 -24 -44 -40 -48 -35 -103 124 -187 359 -217 603 -20
169 -19 182 12 162z m-708 -106 c20 -19 34 -38 30 -41 -4 -4 -28 -10 -54 -13
-46 -5 -47 -4 -41 19 4 13 7 34 7 47 0 31 14 28 58 -12z m-957 -333 l60 -58
-102 -110 c-56 -60 -180 -194 -276 -297 l-174 -187 33 -31 33 -30 125 131 125
130 53 -53 c28 -30 52 -62 52 -73 0 -11 -50 -73 -111 -140 l-111 -120 33 -29
33 -29 92 97 92 97 62 -61 c61 -61 62 -62 43 -83 -10 -12 -62 -70 -115 -128
-54 -58 -98 -110 -98 -114 0 -13 42 -55 55 -55 7 0 52 43 100 96 l88 96 18
-33 c25 -47 25 -141 -1 -193 -11 -23 -75 -97 -143 -166 l-122 -125 -240 -124
c-132 -69 -262 -138 -288 -154 -47 -29 -48 -29 -70 -11 -12 11 -114 104 -227
208 -113 104 -209 193 -213 197 -5 3 15 80 43 170 73 232 103 356 144 584 37
206 54 255 98 288 24 18 27 18 50 3 14 -9 30 -28 36 -42 19 -40 35 -164 29
-219 -5 -46 -3 -52 23 -72 l28 -23 333 360 c184 198 338 360 342 360 5 0 36
-26 68 -57z m-15 -341 c-4 -3 -14 2 -24 12 -16 16 -16 18 3 32 19 14 20 13 23
-11 2 -15 1 -30 -2 -33z m669 27 c28 -7 65 -19 83 -26 28 -12 32 -17 22 -28
-20 -24 -83 -17 -155 17 -62 28 -66 32 -49 45 10 7 25 11 33 8 9 -2 39 -10 66
-16z m254 -48 c26 -17 3 -37 -54 -50 -69 -16 -87 -6 -61 33 13 21 24 26 59 26
23 0 48 -4 56 -9z"/>
<path d="M2283 3333 c-30 -21 -29 -31 5 -35 25 -3 27 -7 30 -55 l3 -53 55 37
c29 20 54 39 54 42 0 6 -113 81 -121 80 -2 0 -14 -7 -26 -16z"/>
</g>
</svg>
