<?xml version="1.0" encoding="utf-8"?>
<!-- Generator: Adobe Illustrator 25.1.0, SVG Export Plug-In . SVG Version: 6.00 Build 0)  -->
<svg version="1.1" id="Layer_1" xmlns="http://www.w3.org/2000/svg" xmlns:xlink="http://www.w3.org/1999/xlink" x="0px" y="0px"
	 viewBox="0 0 315 449" style="enable-background:new 0 0 315 449;" xml:space="preserve">
<style type="text/css">
	.st0{fill:#05B500;stroke:#000000;stroke-miterlimit:10;}
	.st1{fill:none;stroke:#000000;stroke-miterlimit:10;}
	.st2{fill:#83BBFF;stroke:#000000;stroke-miterlimit:10;}
	.st3{fill:#B9D9F9;stroke:#000000;stroke-miterlimit:10;}
	.st4{fill:url(#SVGID_1_);stroke:#000000;stroke-miterlimit:10;}
</style>
<g id="Calque">
</g>
<path class="st0" d="M225.5,26.3C225.5,25.9,225.5,25.9,225.5,26.3c-0.3-6.6-1-12.5-1.6-18.7c0-1.6-2.3-1.6-2.6-0.3
	c0,0-8.2,24.3-18.7,31.5c-1.3,1-10.8,5.3-29.9,13.1c-3,1.3-8.9,3.6-12.8,9.9c-2,3-2.6,5.6-3.3,7.6c0,0-7.9,30.2-0.3,45.7
	c0.5,1.1,0.5,1.1,1,1.9c0.3,0,1-1.3,1-1.3c4.9-4.9,12.5-6.6,19.4-8.2c4.9-1.3,10.2-3,14.8-5.3c9.5-4.6,17.4-11.8,23-21
	C225.5,64,226.5,45,225.5,26.3z"/>
<path class="st0" d="M155.9,133.4c-9.2-14.8-15.4-27.6-29.6-34.2C112.8,93,95.1,92.6,81,97.6l0,0c-1,0.3-2.3,0.7-3.3,1.3
	c-0.7,0.3-1,1-0.7,1.6l0,0c2.6,8.9,12.5,9.2,18.4,14.1c7.6,6.2,8.2,16.8,15.4,23c5.6,4.6,13.1,6.2,20.4,6.6
	c8.2,0.3,20.7,0.7,25.6-6.6C157.8,136.6,156.9,135,155.9,133.4z"/>
<path class="st1" d="M155.9,228.8c1.3-8.9,11.8-12.2,17.1-18.7c5.9-7.9,6.6-18.4,4.6-27.6c-4.6-22.3-26-41.7-20-66"/>
<g id="Main_1_">
	<path class="st2" d="M156,257.6l1.6-16.5c-3-1.3-4.9-2.6-8.2-3c-1.6-0.3-3.6,0-5.3,0c-1.6,0-3,0.7-4.3,1.6c-0.7,0.7-1,1-1.3,1.6
		c-0.7,1-1.3,2.3-2,3.3s-1.3,2.3-2,3.3c-1.6,3.6-2,4.3-3.3,9.9c-0.7,2.6,0,5.6-2.6,6.2c-0.3,0-0.3,1.6-0.3,1.6
		c1,1.3,1.6,4.3,1.6,4.3s1.6-1,2.6-1.3c3-1,5.3-3.6,7.2-5.9c1-1,1.6-2,2.3-3.3s0.3-3.9,0.3-3.9s7.9,2.3,9.2,2.3c1.6,0,2.3,0,3.6,0
		L156,257.6"/>
	<path class="st2" d="M181.2,267.7c1.6,0,5.9,0.3,7.9,0.3c1.3,0,2.6,0,4.3,1c0.7,0.3,1.6,2.3,1.6,2.9c0.3,1.6-0.3,3.6-1.6,5.3
		c-1.3,1.6-3,2.6-5.3,3c-2.3,0.3-5.6,0.3-7.9,0l-0.9-0.1l1.3-12.4H181.2z"/>
	<path class="st2" d="M136.5,218.8c-3.3,2.3-8.9,3.3-13.1,4.6c-3.6,1-7.6,1.6-10.5,4.3c-2.3,2.3-2.3,6.2-3.6,9.2
		c-1.3,3.9-3.6,7.6-4.9,11.5c-2,3.9-2.3,8.9-1,12.8l0.3,0.8l8.4-6.9"/>
	<path id="XMLID_2_" class="st2" d="M92.5,294.7c9.2,14.8,17.4,31.5,27.3,46.7c1.9,3,3.9,6.4,5.8,10c3.7,6.9,7.2,14.3,9.9,19.9
		l7.9,1.6l7.1,0.8l6.6,0.3l5.8-0.1l5.5-0.5l4.8-0.7l4.6-0.9l2.6-0.7c0.7-4.5,0.9-12.1,0.9-16.2c1-5.9,2.6-11.5,3-17.7
		c0.3-3,0-6.2,0-9.2c-0.3-4.9,0.7-7.9-0.3-12.8c-1-4.6-2-9.5-3-14.1c-1-3.9-1.6-7.9-2-12.5c0-3.6,0.3-7.6,0.7-11.2
		c1.3-12.2,2.6-25,3.3-37.1c0-5.3,0.7-10.5-1-15.4c-1.6-4.9-7.1-11.1-10.2-10.8c-3.3-0.2-5.9,2.3-7.6,5.3c-2,3-2.6,5.9-3.3,9.9
		c-0.3,3.3-0.3,4.3-1.3,6.6c-4.6,10.5-2,23-5.6,33.8c-1.6,4.9-4.6,10.2-9.5,11.8c-1.6,0.7-3,0.7-4.3,0.7c-2,0-4.3,0.3-5.9,0.7
		c-1,0-2,0-3-0.3c-1.3-0.7-1.6-2.3-1.6-3.3c0-1.3,0.3-2.6,0.7-3.9c0.7-3.6-0.3-7.6-2-10.5c-0.3-0.3-0.3-0.7-0.3-1s0.7,0.7,0.7,0.7
		c4.6-3.9,4.3-11.5,6.6-16.8c1-1.6,2-3.9,3.3-5.6c8.5-11.5,20-20,30.6-30.2c2-2,3.9-3.9,4.3-6.9c0.3-2.6-1.3-5.9-3.9-6.2
		c-3-0.3-5.9,0.7-8.2,2.6c-4.6,3.9-9.2,6.9-14.1,10.2c-1.6,1.3-3.3,2-4.9,3.3c-3.3,2.3-7.2,4.9-10.8,6.9c-2,1-4.6,2.6-6.2,3.9
		c-2,2-3.6,3.9-4.9,6.6c-4.9,7.9-9.5,16.1-13.8,24.3c-4.6,8.5-9.5,17.1-13.8,25.3c-0.7,1.6-1.6,3-2,4.6
		C90.2,290.1,92.5,294.7,92.5,294.7z"/>
	<path class="st2" d="M155.9,258.5c0,1.3,0,2.6-0.3,3.9c-0.7,3.9-1,7.2-2.6,10.8s-4.6,6.6-8.2,7.9c-0.7,0.3-1.6,0.3-2.3,0.7
		c-2.6,0.7-4.9,1-7.6,1.6c-1.3,0.3-2,0-3.6-0.3c-0.7-0.3-1.6-0.7-1.6-1.3s0-2.3,0-3c0.3-1.3,1-3,1.3-4.3c0.3-1.6,0-3.3-0.7-4.6
		c0.3-1,2.6,2.3,3.3,2.3s1.3,0,2-0.3c2.3-0.7,4.3-2.3,5.9-3.9c3-2.6,6.2-4.9,9.5-7.2c1.6-1,3.6-2,3.6-2L155.9,258.5
		C156.2,257.6,155.9,259.5,155.9,258.5"/>
	<path class="st2" d="M157.5,240.8c-2.6-1.3-5.6-2.3-8.2-2.6c-2.3-0.3-8.2,0.4-7.9,0.4c2-2.3,8.5-9.5,8.5-9.5s0,0,4.3,1.6
		c2,0.3,4.3,0.3,6.2,0L157.5,240.8z"/>
</g>
<g id="Ongles_1_">
	<path class="st3" d="M179.6,230.6c0.3-3.6-1.6-7.6-3.6-10.8c-1.7-3.1-5.2-2.3-6.6-1.6c-1.6,1-3,2.6-3.6,4.3c-0.3,0.7-1.7,7.2-1,8.9
		C165.8,231.4,179.6,231.3,179.6,230.6"/>
	<path class="st3" d="M170.3,199c0,1.7-1.7,4.2-3,5.6s-3.3,2-4.9,3h-0.3h-0.3c-0.7-0.9-3.6-4.2-3.3-3.9c0,0,2.9-2.5,3.7-2.9
		s2.1-1.4,3.3-1.6s1.1-0.4,2.2-0.4S170.3,199,170.3,199z"/>
	<path class="st3" d="M161,200.6"/>
</g>
<g>
	<path d="M157.2,115.9c0,0,0-1.6,0.3-4.3c0.3-2.6,0.3-6.6,1.3-11.2c0.7-4.6,1.6-10.2,3-15.8s3.6-11.8,8.2-17.1
		c2.3-2.3,4.9-4.3,7.6-5.9c2.6-1.6,5.3-3,7.9-4.3c4.9-3,9.9-5.3,14.1-7.6c3.9-2.3,7.6-3.9,10.2-5.3c2.3-1.3,3.9-2,3.9-2
		s-1.3,1-3.6,2.3c-2.3,1.6-5.6,3.6-9.5,6.2s-8.5,5.6-13.5,8.5c-2.6,1.6-4.9,3-7.6,4.6c-2.6,1.6-4.9,3.3-6.9,5.3
		c-3.9,4.3-6.2,10.2-7.9,15.4c-1.6,5.6-3,10.8-3.9,15.4c-1,4.6-2,8.2-2.3,10.8C157.5,114.3,157.2,115.9,157.2,115.9z"/>
</g>
<g>
	<path d="M98,103.1c0,0,7.6,1.7,10.9,3c3,1.3,6.9,3.3,9.9,6.2c1.6,1.6,3,3.3,4.3,5.3s2.3,3.6,3.6,4.9c2.6,3,6.2,5.6,9.9,7.2
		c3.6,2,7.2,3,10.2,3.9c3.3,1,5.9,1.6,7.6,2.3c2,0.7,3,1,3,1s-1,0-3-0.3s-4.6-0.3-7.9-1s-7.2-1.3-11.2-3.3
		c-3.9-1.6-7.9-4.3-10.8-7.9c-1.6-1.6-3-3.6-3.9-5.6c-1-2-2.3-3.6-3.6-4.9c-2.6-3-5.9-4.9-8.5-6.6C105.5,105.7,98,103.1,98,103.1z"
		/>
</g>
<radialGradient id="SVGID_1_" cx="157.7" cy="589.5897" r="146.5322" gradientTransform="matrix(1 0 0 1 0 -287.8)" gradientUnits="userSpaceOnUse">
	<stop  offset="0.3447" style="stop-color:#FFFFFF"/>
	<stop  offset="1" style="stop-color:#353535"/>
</radialGradient>
<path class="st4" d="M26.1,262c3.4,0,6.7,0,10.1,0c4.1,0,7.2-2.3,8.4-6.2c0.9-2.6,1.7-5.3,2.5-7.9c1.3-4,0.3-7.5-3.1-10
	c-5.3-4-10.6-8-15.9-12c-4.8-3.6-6.2-9.3-3.3-14.5c2.8-5,8.7-6.8,14.1-4.4c6,2.6,12,5.2,18,7.7c4.3,1.8,7.9,0.9,10.9-2.6
	c1.6-1.9,3.3-3.7,5-5.5c3.1-3.4,3.6-6.7,1.4-10.6c-3.1-5.7-6.2-11.3-9.4-16.9s-2.2-11.5,2.7-15.1c4.8-3.5,10.6-2.7,15.1,2.2
	c4,4.4,8.2,8.6,12.2,13.1c3.2,3.6,6.7,4.6,11.4,3.2c5.6-1.7,10.8-0.7,15.2,3.3c7.8,7.1,6.8,19.6-2.3,25c-7.9,4.7-15.6,9.5-22.1,16
	c-14.5,14.6-23.1,32-25,52.6c-2.7,28.6,6.8,52.8,27.7,72.2c14.3,13.4,31.6,20.7,51.3,22c27.9,1.9,51.3-7.7,70.2-28
	c12.3-13.2,19.5-29,21.5-47c3.4-30.3-6.6-55.6-29.3-75.8c-5.4-4.8-11.8-8.4-17.8-12.4c-6.9-4.6-9.3-12.6-5.9-20
	c3.3-7.1,11.7-10.9,19.2-8.1c5,1.9,8.5,0.6,11.9-3.1c4-4.5,8.1-8.7,12.2-13.1c4.3-4.7,10.1-5.5,14.9-2c4.9,3.5,5.9,9.4,2.7,15
	c-3.1,5.5-6.2,11.1-9.2,16.7c-2.3,4.1-1.8,7.6,1.4,11.1c1.7,1.9,3.5,3.8,5.2,5.8c2.8,3.1,6.4,3.9,10.2,2.3c5.9-2.5,11.8-5,17.7-7.6
	c6-2.6,11.9-0.9,14.8,4.1c3,5.3,1.4,11.1-4,15c-5.2,3.8-10.3,7.7-15.4,11.6c-3.1,2.4-4.2,6.1-2.9,9.8c0.9,2.6,1.8,5.3,2.6,7.9
	c1.3,4,4.2,6.2,8.4,6.3c6.5,0.2,13.1,0.5,19.6,0.3c5.7-0.1,10.9,3.9,11.5,10.5c0.5,5.4-3.7,10-9.7,11.3c-6.4,1.4-12.9,3-19.2,4.6
	c-3.8,0.9-5.9,3.5-6.4,7.3c-0.4,3-0.7,6.1-1,9.2c-0.3,3.7,1.6,6.8,5.5,8.7c5.8,2.8,11.6,5.5,17.5,8.1c5.7,2.6,8.3,8.1,6.4,13.6
	c-2,5.8-7.3,8.4-13.5,7.1c-6.4-1.4-12.7-2.6-19.2-3.8c-3.9-0.7-7.3,1.1-9.2,4.5c-1.4,2.4-2.7,4.8-4.2,7.2c-2,3.4-1.8,7.1,0.8,10.2
	c4.3,5.1,8.7,10.1,13.1,15.1c4.1,4.7,4.2,10.7,0.3,15.1c-3.9,4.2-10.1,4.6-15,1c-5.3-3.8-10.7-7.5-16.1-11.2
	c-3.5-2.4-7-2.3-10.4,0.2c-2.1,1.5-4.1,3-6.3,4.5c-3.8,2.7-5,6.2-3.7,10.6c1.8,6.1,3.7,12.1,5.6,18.1s-0.4,11.8-5.6,14.1
	c-5.5,2.5-11.3,0.2-14.6-5.4c-3.2-5.6-6.6-11.1-9.9-16.6c-2.2-3.6-5.6-4.8-9.7-3.9c-2.5,0.6-5,1-7.6,1.6c-4.7,1.1-7,3.5-7.6,8.3
	c-0.8,6.5-1.6,13-2.4,19.5c-0.7,5.3-3.7,8.6-8.7,9.6c-5.9,1.2-11.6-2.4-12.6-8.4c-1.1-6.7-1.8-13.5-2.6-20.3
	c-0.6-5.1-3.1-7.9-8.1-8.8c-2.3-0.4-4.7-0.8-7-1.4c-4.2-1-7.6,0.3-9.9,4c-3.4,5.5-6.7,11-9.9,16.6c-3.3,5.6-8.8,7.7-14.4,5.3
	c-5.2-2.2-7.6-8-5.8-14s3.7-11.9,5.5-17.9c1.6-5.1,0.4-8.3-3.9-11.3c-2-1.4-4-2.9-6-4.4c-3.3-2.4-6.9-2.6-10.2-0.3
	c-5.5,3.8-10.9,7.6-16.3,11.4c-4.8,3.5-10.9,3.1-14.8-0.9c-4-4.1-4-10.5,0-15.1c4.3-5,8.6-9.8,12.9-14.8c3.1-3.6,3.3-7.1,0.9-11.2
	c-1.3-2.2-2.6-4.5-3.9-6.7c-1.9-3.4-5-5.1-8.9-4.4c-6.6,1.1-13.2,2.4-19.8,3.7c-6.2,1.3-11.5-1.6-13.3-7.4
	c-1.7-5.5,1.1-10.9,6.8-13.4c5.9-2.6,11.7-5.4,17.5-8.1c3.9-1.9,5.6-5.2,5.1-9.5c-0.3-2.8-0.5-5.5-0.8-8.3c-0.3-3.2-2.8-6.4-6.1-7.3
	c-6.5-1.7-13-3.3-19.6-4.6c-5.9-1.2-10.1-6-9.6-11.4c0.5-6.1,4.9-10.3,11.2-10.5c3.3-0.1,6.5,0,9.8,0
	C26.1,262.2,26.1,262.1,26.1,262z"/>
<path class="st2" d="M128.7,264.5"/>
<path class="st2" d="M128,263.8"/>
<path class="st1" d="M120.1,263.2"/>
</svg>
