<svg id="Capa_1" data-name="Capa 1" xmlns="http://www.w3.org/2000/svg" viewBox="0 0 863.59 761.68"><defs><style>.cls-1{fill:#001522;}.cls-2{fill:#00111e;}.cls-3{fill:#0b2230;}.cls-4{fill:#0d001f;}.cls-5{fill:#001320;}.cls-6{fill:#0f2736;}.cls-7{fill:#00070c;}.cls-8{fill:#2656a3;}.cls-9{fill:#25246d;}.cls-10{fill:#633c1a;}.cls-11{fill:#f7b6a0;}.cls-12{fill:#f49f8d;}.cls-13{fill:#f7b6a4;}.cls-14{fill:#14aac9;}.cls-15{fill:#2778a8;}.cls-16{fill:#f2937c;}.cls-17{fill:#f39d94;}.cls-18{fill:#7f482e;}.cls-19{fill:#ee756d;}.cls-20{fill:#fff;}.cls-21{fill:#95c11f;}.cls-22{fill:#e74645;}.cls-23{fill:#fef1e6;}.cls-24{fill:#f5a683;}.cls-25{fill:#6cbeea;}.cls-26{fill:#f6af8d;}.cls-27{fill:#f18a65;}.cls-28{fill:#49220f;}.cls-29{fill:#f49c81;}.cls-30{fill:#3f1c08;}.cls-31{fill:#63311d;}.cls-32{fill:#3aa4dc;}.cls-33{fill:#64bbda;}.cls-34{fill:#fffffc;}.cls-35{fill:#e85733;}.cls-36{fill:#242055;}.cls-37{fill:#c06a4a;}.cls-38{fill:#af5040;}.cls-39{fill:#191138;}.cls-40{fill:#04447f;}.cls-41{fill:#024c8d;}.cls-42{fill:#c05039;}.cls-43{fill:#5a5881;}.cls-44{fill:#46456e;}.cls-45{fill:#4f84c4;}.cls-46{fill:#005aa7;}.cls-47{fill:#0086cd;}.cls-48{fill:#9abae3;}</style></defs><path class="cls-1" d="M553.29,781.62l-20-406.57c1.7-43.24-23.14-37.59-23.14-37.59s-22.58-7.89-27.09,40.66l-37.91,403.5Z" transform="translate(-63.35 -43.7)"/><path class="cls-1" d="M579.29,781.62h30.23s19.55,4,19.41,23.76H376.46s1.7-24.87,25.41-23.76Z" transform="translate(-63.35 -43.7)"/><rect class="cls-2" x="846.23" y="67.34" width="17.36" height="594.29"/><rect class="cls-3" y="67.34" width="846.23" height="594.24"/><rect class="cls-4" x="27.79" y="90.99" width="790.65" height="546.93"/><path class="cls-5" d="M552.19,81.28c0,20.16-16.36,36-36.51,36.51-43.25,1.12-53.92-17.47-53.92-37.64s2.81-41.55,53.92-35.37C535.7,47.19,552.19,61.12,552.19,81.28Z" transform="translate(-63.35 -43.7)"/><path class="cls-6" d="M523,81.34a36.51,36.51,0,1,1-36.51-36.52A36.51,36.51,0,0,1,523,81.34Z" transform="translate(-63.35 -43.7)"/><path class="cls-7" d="M503.89,81.32a17.42,17.42,0,1,1-17.42-17.4A17.41,17.41,0,0,1,503.89,81.32Z" transform="translate(-63.35 -43.7)"/><rect class="cls-8" x="44.63" y="121.71" width="229.62" height="243.29"/><rect class="cls-9" x="44.63" y="121.71" width="229.62" height="19.92"/><path class="cls-10" d="M198.46,256.52c-3.48,12-2,23,2.7,34.23,3.93,9.48,9.23,17.45,11.39,27.87,2.11,10.16-1.14,17.79-4.54,27.12-2.94,8-4.42,19,2.89,25.41,8.12,7.14,26.19,4.72,36,4,11.43-.86,23.76-.25,34.84-3.56,9.61-2.87,15.51-12,17.74-21.47,2.94-12.52-.4-24.3-8-34.44-6.56-8.69-16-14.61-10-26.35,3.34-6.43,8.62-10.2,9.43-17.79.91-8.3-1.08-16.21-4.39-23.85-8.66-20-28.44-35.9-49.9-33.91-7.65.7-18.44,6.24-24,12.06C205.14,233.71,201.4,246.35,198.46,256.52Z" transform="translate(-63.35 -43.7)"/><path class="cls-11" d="M201.71,408.69C207.47,388.5,212,367.48,212,367.48c9.06-37.17-7.26-44.72-7.26-44.72-12,5.8-19.27,16.52-19.27,16.52-3.34,14.36-8.22,50.6-10.64,69.41Z" transform="translate(-63.35 -43.7)"/><path class="cls-11" d="M181,408.69A154,154,0,0,0,173.45,395c-10.59-17-25.5-53.25-25.5-53.25L140,343.14s5.19,35.65,16,65.55Z" transform="translate(-63.35 -43.7)"/><polygon class="cls-11" points="218.9 365 232.38 281.24 189.13 265.22 166.5 265.22 143.1 276.18 145.72 365 218.9 365"/><path class="cls-11" d="M227,310.33h28.59V276.17H227S230,303.08,227,310.33Z" transform="translate(-63.35 -43.7)"/><path class="cls-12" d="M228.33,299.79c9.19,2,18.84,1.95,27.24-1.76V276.17H227A221.1,221.1,0,0,1,228.33,299.79Z" transform="translate(-63.35 -43.7)"/><path class="cls-13" d="M211.92,257.94c0,10,1.61,27.4,8.49,33.75,8.35,7.69,35.16-.84,38-12.66,3-12.65,9.42-27.64,7.1-40a24.92,24.92,0,0,0-30.77-19.68C220.39,222.87,212,244.9,211.92,257.94Z" transform="translate(-63.35 -43.7)"/><path class="cls-13" d="M270,256.31c3.33,4.44-2,15.4-10.34,18-1.61-2.44-1.48-8.68-1.3-11.57s2.54-5,4.58-7.16C263.57,254.94,267.54,253.05,270,256.31Z" transform="translate(-63.35 -43.7)"/><path class="cls-10" d="M249.75,247.43c3.19,1.7,2.88,6.25,3.7,8.45,1.92,5.06,4.45,5.4,7.52,5.72a7.6,7.6,0,0,1,5.9-6.5c2.69,0,3.39,1.73,4.11,3.53,1.1-3.16,1.87-11.9,1.57-15.23-.34-3.71-1.81-7.55-2.85-11.12-1.12-3.94-3-4.85-5.95-7.73-2.75-2.7-6-3-8.81-5.14a8,8,0,0,0-2.25,2.73c-1.91,2.23-7.65,11.54-8.7,13C244,235.1,239,241.63,249.75,247.43Z" transform="translate(-63.35 -43.7)"/><path class="cls-10" d="M242.94,236.62l12-17.21c-4-5.77-18.92-5-18.94-5-15.62.47-29.49,15.66-27.7,31.25.41,3.43,1.4,9.57,3.62,12.32,1.32-16,4.23-16.74,5.44-17.5,3.68,1.37,12.75.71,15.83-.61,3.38-1.44,7.8-2.6,10.8-4.73" transform="translate(-63.35 -43.7)"/><path class="cls-14" d="M199.94,385.33c1.3,3.07,2.4,12.31,3.1,23.36h80.67l-.07-5.15,7.46-26.92c-12.92-18.51-25.52-40.92-3.57-54.8-.26-.08-.52-.16-.79-.27C279.89,319,266.87,314,260,311.47c-18.06,19.57-37.95,1.11-37.95,1.11l-15.59,7.29-6.52,15.64c-2.62,6.82-9.35,22.95-8,29.8C193.42,373.24,196.77,377.88,199.94,385.33Z" transform="translate(-63.35 -43.7)"/><path class="cls-15" d="M242,321.25c-5.95,0-15.08-2.38-18-6.26a.89.89,0,0,1,.18-1.22.87.87,0,0,1,1.23.19c2.77,3.69,14,6.36,19.19,5.33a25.63,25.63,0,0,0,13.72-6.74.88.88,0,0,1,1.24,0,.87.87,0,0,1,0,1.23,27.14,27.14,0,0,1-14.7,7.23A15.16,15.16,0,0,1,242,321.25Z" transform="translate(-63.35 -43.7)"/><path class="cls-16" d="M264,268.3a1,1,0,0,1-.86-.5,1,1,0,0,1,.38-1.33,6.22,6.22,0,0,0,2.45-3.68,5.26,5.26,0,0,0-.2-3.91,1,1,0,0,1,.37-1.36,1,1,0,0,1,1.33.38,7.09,7.09,0,0,1,.4,5.41,8.11,8.11,0,0,1-3.38,4.87A1.07,1.07,0,0,1,264,268.3Z" transform="translate(-63.35 -43.7)"/><path class="cls-16" d="M266.42,263.94a.9.9,0,0,1-.66-.25,2.45,2.45,0,0,0-1.89-.61,1,1,0,0,1-1.05-.93,1,1,0,0,1,.92-1,4.3,4.3,0,0,1,3.33,1.11,1,1,0,0,1-.65,1.71Z" transform="translate(-63.35 -43.7)"/><path class="cls-11" d="M139.94,307c-5.45.23,1.15,14.31,1.11,17.24-1.29-3.32-5.2-16.29-8.81-16-2.12.37,3,11.41,3.5,13.67-1.15-1.82-4.48-9.67-6.91-8.9-1.56,1,2.16,8.41,2.91,10.87-.5-.44-3.92-7.39-5-6.14s.51,6.3,1.52,8.8c4.57,11.31,9.28,23.93,15.94,18.86,5-3.78,7.6-6,9.74-23.89.37-3.08-4.74-.66-6.77,5.32C145.77,326.1,140.6,307,139.94,307Z" transform="translate(-63.35 -43.7)"/><path class="cls-16" d="M146.07,330.41l.35-.35c.38-.4-.77-.57-1-.31a3.22,3.22,0,0,0-.39.45c.41,0,.82-.05,1.25-.06a1.48,1.48,0,0,0-1.57-.22c-.32.15-.58.62-.77.91s-.8.47-1.1.82c-1.52,1.78-1,5,.16,6.86.29.48,2,.48,1.77-.23a13.59,13.59,0,0,1-.95-4.66,2.47,2.47,0,0,1,1.21-2,1.79,1.79,0,0,0,.51-.62c.4-.68.3-.23-.34-.51.26.12,1,.21,1.14-.14a3.47,3.47,0,0,0,.16-.41c.14-.45-1-.52-1.14-.15-.05.13-.1.26-.14.4-.1.36.71.35.87.18Z" transform="translate(-63.35 -43.7)"/><path class="cls-17" d="M233.36,265.29c0,1.31,2.5,2.36,5.6,2.36s5.61-1,5.61-2.36-2.51-2.37-5.61-2.37S233.36,264,233.36,265.29Z" transform="translate(-63.35 -43.7)"/><path class="cls-17" d="M212.8,265.29c0,1.31,2,2.36,4.52,2.36s4.53-1,4.53-2.36-2-2.37-4.53-2.37S212.8,264,212.8,265.29Z" transform="translate(-63.35 -43.7)"/><path class="cls-18" d="M218.34,256.21c1.09.07,1.93,1.63,1.86,3.48s-1,3.29-2.1,3.23-1.93-1.63-1.87-3.5S217.25,256.13,218.34,256.21Z" transform="translate(-63.35 -43.7)"/><path class="cls-18" d="M237.5,256.19c1.1.09,1.93,1.65,1.85,3.5s-1,3.29-2.11,3.23-1.92-1.64-1.85-3.5S236.4,256.13,237.5,256.19Z" transform="translate(-63.35 -43.7)"/><path class="cls-16" d="M226.15,256.8c.85,2.49-1.42,5.12-3,6.69-.77.77-1.77,1.91-1.29,3.11.94,2.35,4.17,3.36,6.43,3.85.24.05,1.79.09,1.42-.54a1.09,1.09,0,0,0-1.86,0l1.18-.31c-2.77-.55-7.75-2.4-4.73-5.76,1.53-1.72,4.11-4.71,2.52-7.13-.12-.17-.78-.19-.69.09Z" transform="translate(-63.35 -43.7)"/><path class="cls-19" d="M227.07,278.77a6.83,6.83,0,0,1-4.92-2.13.88.88,0,0,1,0-1.24.87.87,0,0,1,1.23,0c3.48,3.49,7.53.34,7.71.2a.88.88,0,0,1,1.09,1.37A8.72,8.72,0,0,1,227.07,278.77Z" transform="translate(-63.35 -43.7)"/><path class="cls-10" d="M232.33,255.83a.91.91,0,0,1-.67-.32.86.86,0,0,1,.11-1.22c3.81-3.18,7.83-3.23,11.63-.16a.87.87,0,0,1-1.1,1.34c-3.15-2.54-6.22-2.49-9.41.14A.81.81,0,0,1,232.33,255.83Z" transform="translate(-63.35 -43.7)"/><path class="cls-10" d="M222.74,255.73a1,1,0,0,1-.56-.18c-2.76-2.23-5.4-2.54-8.07-1a.87.87,0,0,1-1.2-.3.89.89,0,0,1,.31-1.2c3.28-1.94,6.76-1.57,10.06,1.09a.87.87,0,0,1,.13,1.22A.84.84,0,0,1,222.74,255.73Z" transform="translate(-63.35 -43.7)"/><path class="cls-11" d="M283.71,408.69h26.76l1.25-55.13s1.17-27-24.19-31.74c0,0-17.1,7.63-9,36.7Z" transform="translate(-63.35 -43.7)"/><path class="cls-20" d="M262.87,270.87a2,2,0,1,1-2-2A2,2,0,0,1,262.87,270.87Z" transform="translate(-63.35 -43.7)"/><polygon class="cls-14" points="218.53 365 216.39 327.33 133.83 333.73 130.78 365 218.53 365"/><path class="cls-14" d="M284.24,320.58s-13.81,5.09-12.06,28.93l3.49,55.82s20.93,6.4,43-2.91l-6.26-58.87S309.68,326.25,284.24,320.58Z" transform="translate(-63.35 -43.7)"/><path class="cls-14" d="M207.94,318.84s-19.41,5-25.52,19.84l-15.7,33.14s10.46,23.33,29.44,27.25l21.59-44.92S228.43,329.08,207.94,318.84Z" transform="translate(-63.35 -43.7)"/><path class="cls-15" d="M276,400.82a.88.88,0,0,1-.87-.8c-.33-3.94-.82-9-1.35-14.36-1-10.66-2.19-22.74-2.58-30.58-.43-9-1.25-25.63,9.1-33a.86.86,0,0,1,1.22.2.9.9,0,0,1-.21,1.22c-9.58,6.84-8.79,22.9-8.37,31.52.39,7.81,1.56,19.86,2.58,30.5.53,5.41,1,10.44,1.35,14.38a.89.89,0,0,1-.79.95Z" transform="translate(-63.35 -43.7)"/><path class="cls-20" d="M301.58,175.05a5.38,5.38,0,1,1-5.38-5.38A5.38,5.38,0,0,1,301.58,175.05Z" transform="translate(-63.35 -43.7)"/><path class="cls-21" d="M316.42,175.05a5.37,5.37,0,1,1-5.36-5.38A5.37,5.37,0,0,1,316.42,175.05Z" transform="translate(-63.35 -43.7)"/><path class="cls-22" d="M331.28,175.05a5.37,5.37,0,1,1-5.37-5.38A5.38,5.38,0,0,1,331.28,175.05Z" transform="translate(-63.35 -43.7)"/><rect class="cls-23" x="274.24" y="121.71" width="229.62" height="243.29"/><rect class="cls-9" x="274.24" y="121.71" width="229.62" height="19.92"/><path class="cls-20" d="M531.18,175.05a5.37,5.37,0,1,1-5.36-5.38A5.37,5.37,0,0,1,531.18,175.05Z" transform="translate(-63.35 -43.7)"/><path class="cls-21" d="M546,175.05a5.37,5.37,0,1,1-5.37-5.38A5.37,5.37,0,0,1,546,175.05Z" transform="translate(-63.35 -43.7)"/><path class="cls-22" d="M560.9,175.05a5.38,5.38,0,1,1-5.38-5.38A5.39,5.39,0,0,1,560.9,175.05Z" transform="translate(-63.35 -43.7)"/><path class="cls-24" d="M404.31,408.69a234.19,234.19,0,0,1,8.32-26.52s-13.06-43-35.84-7.68c0,0-1.59,13.63-2.64,34.2Z" transform="translate(-63.35 -43.7)"/><path class="cls-25" d="M392.88,408.69l20-52.36s12.53-34.35-2.91-54.25c0,0-19,4.47-39,48.63l-14.13,27.72,29.11,30.26Z" transform="translate(-63.35 -43.7)"/><polygon class="cls-26" points="352.85 258.48 366.94 248.17 397.19 248.17 413.92 258.48 352.85 258.48"/><path class="cls-24" d="M428.9,297.62h31.64V263.08H428.9S432.28,290.3,428.9,297.62Z" transform="translate(-63.35 -43.7)"/><path class="cls-27" d="M460.54,278.74V263.08H428.9s1,7.7,1.35,16C439.36,283.35,450.85,282.71,460.54,278.74Z" transform="translate(-63.35 -43.7)"/><path class="cls-28" d="M410.68,235.71c1.61,5.14,3.2,11.11,6.33,15.76,3.58,5.3,9.36,6.11,12.52.06,3-5.7,3.44-13,2.81-19.1-.34-3.35,5-15.27,2-17.76-4.56-3.88-19.12-4.41-23-.52C407.69,217.79,409.27,231.17,410.68,235.71Z" transform="translate(-63.35 -43.7)"/><path class="cls-26" d="M412.87,244.5a85.69,85.69,0,0,0,1.44,18c1.15,6,2.5,17.24,9,20.2a13.5,13.5,0,0,0,6.05,1c9.1.13,19.22-5.15,25.49-11.44,11.71-11.71,14-42.13,4.14-54.73-9-11.52-40.65-8.37-44.06,8.62A105.37,105.37,0,0,0,412.87,244.5Z" transform="translate(-63.35 -43.7)"/><path class="cls-24" d="M412.87,244.5a85.69,85.69,0,0,0,1.44,18c1.15,6,2.5,17.24,9,20.2a13.5,13.5,0,0,0,6.05,1c9.1.13,19.22-5.15,25.49-11.44,11.71-11.71,14-42.13,4.14-54.73-9-11.52-40.65-8.37-44.06,8.62A105.37,105.37,0,0,0,412.87,244.5Z" transform="translate(-63.35 -43.7)"/><path class="cls-27" d="M457.27,269.38c9.52-13.21,10.81-40.14,1.69-51.81a11.25,11.25,0,0,0-1.69-1.76l2,24.29-2,7.29Z" transform="translate(-63.35 -43.7)"/><path class="cls-18" d="M419.18,245.53a1.53,1.53,0,1,1-3,0,1.53,1.53,0,1,1,3,0Z" transform="translate(-63.35 -43.7)"/><path class="cls-18" d="M436.62,246.24a1.53,1.53,0,1,1-1.5-1.87A1.71,1.71,0,0,1,436.62,246.24Z" transform="translate(-63.35 -43.7)"/><path class="cls-29" d="M461.43,244.81c1.43-1.35,2.68-5.1,5.19-3.76.25.12.53.14.78.24,1,.42,1.13,1.41,1.47,2.26a20.47,20.47,0,0,1,1,4.69c0,.08.21.08.22,0,.38-2.8-.15-7.32-3.06-8.63s-7.24,1.88-7.19,5c0,.58,1.29.47,1.57.21Z" transform="translate(-63.35 -43.7)"/><path class="cls-27" d="M423,265.33c1.62,1.76,4.29,1.29,6.45,1.3a10,10,0,0,0,5.23-1.64.36.36,0,0,0,.12-.45,1.82,1.82,0,0,1-.07-.25c-.16-.49-1.24-.33-1.55-.2-2.8,1.31-6.16,2-9.16.86-.23-.1-1.45-.1-1,.38Z" transform="translate(-63.35 -43.7)"/><path class="cls-28" d="M456.35,237.7c.07,1.56.45,9.17.83,10.54s1.69,1.78,2.14.69c2.3-2.08,2-7.68,5.78-8.2,4.11-.58,4.91,5.44,4.79,8.2,1.94-3.85,4-8,4.07-12.12,0-2.17,0-7.49,0-11.42-.06-8.13-6.27-15.46-15.41-14.88-4.2.27-8.88,2.49-10.72,6.47-1.95,4.25.77,7.82,3.55,10.86C454.86,231.64,456.08,232.28,456.35,237.7Z" transform="translate(-63.35 -43.7)"/><path class="cls-24" d="M468.6,241.06c4,4,1.45,15.56-6.53,19.32-2-2.21-1.87-8.11-2.09-11s-.31-5.6,1.45-8C462,240.59,465.7,238.15,468.6,241.06Z" transform="translate(-63.35 -43.7)"/><path class="cls-27" d="M462.12,249c-.09.55-.53,1.72-.11,2.2a3.17,3.17,0,0,0,1.22.82,2,2,0,0,0,2.37-.92,7.88,7.88,0,0,0,.74-3,2.33,2.33,0,0,0-.42-2.07.81.81,0,0,0-.87,0c-.8.8-.57,2.27-.72,3.31a3.91,3.91,0,0,1-.64,1.88c-.13.13-.16.07.16.05s-.08-.11-.23-.23c-.52-.39-.34-1.48-.38-2.06,0-.39-1.08-.38-1.12,0Z" transform="translate(-63.35 -43.7)"/><path class="cls-27" d="M464.4,246.31c1.08-1.4,2.13,0,2.39,1a6,6,0,0,1,.06,1.89c-.12,1.29-1.07,2.34-1.48,3.54-.11.3.56.29.71.19,2.19-1.35,3.27-4.63,1.8-6.88-.91-1.4-3.69-1.58-4.38.1-.14.37.74.34.9.14Z" transform="translate(-63.35 -43.7)"/><path class="cls-27" d="M420.83,239.75c-.31,2.06.55,4.31.26,6.49-.46,3.44-1.81,6.3-2.95,9.52-1.45,4,7,3.84,9,3.5,1.45-.25.42-1.13-.56-1a8.47,8.47,0,0,1-2.07.11c-6.19-.29-4.2-2.46-3.45-4.57a29.21,29.21,0,0,0,2.05-6.41c.38-2.87-1.16-5-1.4-7.62,0-.29-.81-.29-.85,0Z" transform="translate(-63.35 -43.7)"/><path class="cls-30" d="M405.58,208.76a42.74,42.74,0,0,0,1.16,4.88A18.74,18.74,0,0,0,421,225.77c5.31,1.08,8.71-2.68,13.58-3.33,4.4-.57,7.93,2.27,12,3.33s5.42,1.29,8.46-1.42c1.46-1.3,3.21-1.86,4.8-2.93s2.84-3,4.64-4c3.09-1.71,2.31-1.55,3.89-5.12a10,10,0,0,0,0-8.43c-1.43-2.93-5.3-3.47-6.56-6s-9.38-.71-12.08-1.25a69.37,69.37,0,0,0-26.11-.58S405.6,200,405.58,208.76Z" transform="translate(-63.35 -43.7)"/><path class="cls-31" d="M429.79,241.75a.74.74,0,0,1-.62-.31.79.79,0,0,1,.15-1.11c3.43-2.54,8.64-2,10.83.07a.78.78,0,0,1-1.08,1.13c-1.54-1.47-5.9-2.1-8.81.07A.8.8,0,0,1,429.79,241.75Z" transform="translate(-63.35 -43.7)"/><path class="cls-31" d="M420.76,241.75a1,1,0,0,1-.52-.19c-1.59-1.46-4.29-1.23-6-.19a.79.79,0,0,1-.82-1.34c2.16-1.33,5.65-1.65,7.86.35a.79.79,0,0,1-.53,1.37Z" transform="translate(-63.35 -43.7)"/><path class="cls-25" d="M506.43,408.69c-.33-4.23-.55-6.89-.55-6.89l-5.42-94.09L460.54,291c-23.92,18.92-30.25,0-30.25,0l-22.11,11.07c-14.83,9-17.19,69.75-17.19,69.75-1.09,12.3-2.23,24.6-3.32,36.89Z" transform="translate(-63.35 -43.7)"/><path class="cls-32" d="M390.91,394.78a.79.79,0,0,1-.79-.79c0-24.3,1-50.27,7.88-75.55a.8.8,0,0,1,1-.55.79.79,0,0,1,.54,1C392.64,344,391.7,369.81,391.7,394A.79.79,0,0,1,390.91,394.78Z" transform="translate(-63.35 -43.7)"/><path class="cls-32" d="M442.29,308.05a19.83,19.83,0,0,1-5.12-.6c-2.68-.73-10.11-3.72-12.1-8.71a.79.79,0,0,1,1.46-.58c1.75,4.37,8.75,7.15,11.05,7.78,6.82,1.86,20.24-.82,24.09-8.18a.78.78,0,0,1,1.06-.32.77.77,0,0,1,.33,1.05C459.71,304.89,449.84,308.05,442.29,308.05Z" transform="translate(-63.35 -43.7)"/><path class="cls-24" d="M533.89,408.69c1.65-32.93-4.56-58.9-11.21-67.92-5.25,0-13.75,3.27-24.6,0-2.09,10,9.1,54.8,9.47,67.92Z" transform="translate(-63.35 -43.7)"/><path class="cls-25" d="M495.46,408.69h31.06c11.68-2.18,18.12-6.18,18.12-6.18l-17.26-66.19c-7.85-20.67-26.92-28.61-26.92-28.61-17,3.93-15.27,23.63-15.27,23.63Z" transform="translate(-63.35 -43.7)"/><path class="cls-32" d="M495.85,400.68a.78.78,0,0,1-.76-.57c-4.11-14.51-6.55-29.85-8.91-44.69l-.67-4.16c-2.16-13.41-3.72-28.59,5.17-39.25a.78.78,0,0,1,1.1-.1.81.81,0,0,1,.11,1.11c-8.47,10.15-6.94,24.93-4.83,38l.66,4.17c2.36,14.79,4.8,30.07,8.88,44.5a.79.79,0,0,1-.53,1Z" transform="translate(-63.35 -43.7)"/><rect class="cls-33" x="44.6" y="365" width="229.62" height="243.3"/><rect class="cls-9" x="44.6" y="365" width="229.62" height="19.91"/><path class="cls-20" d="M301.55,418.33a5.38,5.38,0,1,1-5.37-5.37A5.37,5.37,0,0,1,301.55,418.33Z" transform="translate(-63.35 -43.7)"/><path class="cls-21" d="M316.4,418.33A5.38,5.38,0,1,1,311,413,5.37,5.37,0,0,1,316.4,418.33Z" transform="translate(-63.35 -43.7)"/><path class="cls-22" d="M331.26,418.33a5.38,5.38,0,1,1-5.38-5.37A5.38,5.38,0,0,1,331.26,418.33Z" transform="translate(-63.35 -43.7)"/><rect class="cls-34" x="274.24" y="365" width="229.62" height="243.3"/><rect class="cls-9" x="274.24" y="365" width="229.62" height="19.91"/><path class="cls-20" d="M531.18,418.33a5.37,5.37,0,1,1-5.37-5.37A5.37,5.37,0,0,1,531.18,418.33Z" transform="translate(-63.35 -43.7)"/><path class="cls-21" d="M546,418.33a5.38,5.38,0,1,1-5.37-5.37A5.37,5.37,0,0,1,546,418.33Z" transform="translate(-63.35 -43.7)"/><path class="cls-22" d="M560.9,418.33a5.38,5.38,0,1,1-5.38-5.37A5.38,5.38,0,0,1,560.9,418.33Z" transform="translate(-63.35 -43.7)"/><path class="cls-35" d="M417.33,498.44c-.64,2.63-3,4.81-3.94,7.35a16.2,16.2,0,0,0-.61,9.91c1,3.27,3.73,4.13,5.55,6a10.76,10.76,0,0,0,6.16.23c2.46-.66,4.83-2.27,7.34-2.64,4.18-.6,7.15,1.9,9.57,5,1.35,1.73,2.84,4.31,5.17,4.86,3.42.84,6.68-.55,9.28-2.77,3.52-3,6.48-4.91,11.18-5.42,2.87-.31,5.7-.65,7.62-3.08,2.27-2.89,2.8-5.57,3.57-9a9.43,9.43,0,0,1,2.91-5.47c1.32-1.14,3.34-1.7,4.58-3,0-.29,0-.58,0-.87a65.66,65.66,0,0,0-6.19-24.83c-3.29-7-7.73-14.14-16.19-14.05-3.9,0-5.85.93-9-2-5.88-5.47-11.22-12.83-20.61-9.83-7.37,2.35-14,10.69-17.86,17C411.48,473,410,481.53,414,489,415.63,492.06,418.21,494.73,417.33,498.44Z" transform="translate(-63.35 -43.7)"/><path class="cls-11" d="M426.81,569.7c2.33-22.61-9-23.11-9-23.11-12.85-2.47-17.58,17.13-17.58,17.13s-6.59,43.16-5.32,62.25c0,0,13.92,7.52,19.55-4.74Z" transform="translate(-63.35 -43.7)"/><path class="cls-11" d="M402.28,652a219.58,219.58,0,0,0,12.05-29.5s-5.53-29.28-19.26-11.87A268.11,268.11,0,0,1,384.24,652Z" transform="translate(-63.35 -43.7)"/><polygon class="cls-11" points="415.04 608.29 437.78 506.49 395.32 490.86 375.44 490.86 349.17 503.15 358.19 608.29 415.04 608.29"/><path class="cls-11" d="M436.28,535.8H461.4v-30H436.28S439,529.43,436.28,535.8Z" transform="translate(-63.35 -43.7)"/><path class="cls-16" d="M451.85,521.68a32.92,32.92,0,0,0,9.55-3V505.79H436.28s1,8.35,1.16,16.46A49,49,0,0,0,451.85,521.68Z" transform="translate(-63.35 -43.7)"/><path class="cls-36" d="M480.37,652c1.77-3.87,5-10.15,4.89-13.51-.12-3.79,4-10,4.35-13.74s.24-7.55,2.09-11c3.45-6.34,3.4-15.72,5-22.83s2.67-10.81,2.68-18.23c0-4,3.38-8.36,4.36-12.2,1-4.09.45-9-3.58-10.85-3.58-1.63-7.66-2.66-11.36-4-6-2.25-17.47-6.66-23.49-8.87-21.57,18.55-33.35,1-33.35,1l-13.71,6.4L418.07,652Z" transform="translate(-63.35 -43.7)"/><path class="cls-36" d="M412.52,601.69c2.79,6.53-.57,10.27-2.38,26.16-1.06,9.37-2,17.37-3.22,24.14h89.29a59,59,0,0,1-2.89-13.44c-1.65-16.32,1.29-32.83,3.54-48.63,1.08-7.61,5-17.43,4.23-25-.8-7.19-9.67-13.18-16.39-13.19-9.6,0-18.66,5.07-28.31,6-10.9,1.08-16.6-2.84-24.9-9.08-3.35-2.54-8.74-8.18-12.63-4.55-4.09,3.77-4.35,8.69-6.34,13.84-2.3,6-8.2,20.15-7,26.16C406.79,591.07,409.74,595.14,412.52,601.69Z" transform="translate(-63.35 -43.7)"/><path class="cls-11" d="M501.13,652h17.58a288.72,288.72,0,0,0,1.79-32c-20.53-.79-20.32,11.6-20.32,11.6A199.75,199.75,0,0,1,501.13,652Z" transform="translate(-63.35 -43.7)"/><path class="cls-11" d="M516.1,637.71c2.44-4.06,4.22-12.68,4.4-17.71,1-30.47-10.93-60.06-17.32-67.69-.66-2-15.14-10.85-18.44,6.85-1.3,9,15.31,65.73,15.44,72.44C500.18,631.6,504.92,642.75,516.1,637.71Z" transform="translate(-63.35 -43.7)"/><path class="cls-11" d="M426.33,482.33c.07,8.93,1.68,24.58,7.91,30.22,7.56,6.83,27.92-4.62,34-11.69,7.6-8.85,8.22-24.88,6-36a22.36,22.36,0,0,0-27.8-17.39C433.63,450.78,426.25,470.62,426.33,482.33Z" transform="translate(-63.35 -43.7)"/><path class="cls-16" d="M473.9,464.28a22.59,22.59,0,0,0-2.61-6.6l-4.07,29L467,497.79l.93,3.52c.28-.3.53-.58.78-.88C476.13,491.42,476.36,475.36,473.9,464.28Z" transform="translate(-63.35 -43.7)"/><path class="cls-11" d="M478.46,479.7c3.11,3.88-.18,13.86-7.58,16.44-1.52-2.13-.89-7.34-.82-9.92s.26-5,2-7C472.65,478.67,476.15,476.84,478.46,479.7Z" transform="translate(-63.35 -43.7)"/><path class="cls-16" d="M471.91,486.14c-.13.53-.64,1.48-.26,2a2.1,2.1,0,0,0,1.07.81,2,2,0,0,0,2.3-.81,7.37,7.37,0,0,0,.89-2.52,1.84,1.84,0,0,0-.26-1.83.74.74,0,0,0-.85,0c-.86.63-.76,2.06-1,3a2.86,2.86,0,0,1-.78,1.51c.39-.3.74.1.47-.07a2.46,2.46,0,0,1-.41-.38c-.28-.28,0-1.34,0-1.69s-1-.38-1.13,0Z" transform="translate(-63.35 -43.7)"/><path class="cls-16" d="M474.27,484c1.67-1.71,2,1.58,1.85,2.44-.14,1.32-1.21,2.19-1.67,3.35-.14.32.57.28.72.2a4.66,4.66,0,0,0,2.32-5.87c-.67-1.42-3.3-1.81-4.08-.3-.16.31.69.33.86.18Z" transform="translate(-63.35 -43.7)"/><path class="cls-37" d="M463.85,447.05a6.82,6.82,0,0,0-2,2.52c-1.65,2.05-6.51,10.58-7.42,11.89-2.45,3.53.36,6.47,2.85,8.89.77.77,1.57,1.52,2.35,2.29,2.36,2.34,4.58,4.78,5.79,7.93.8,2.08,1.4,7.82,4.4,8.05.18-3,1.29-9.13,5.75-9.91.55-.2,2.44,0,4,3.33,0,0,9-29.21-15.77-35" transform="translate(-63.35 -43.7)"/><path class="cls-35" d="M453.58,462.85l10.27-15.8c-3.77-5.07-17.16-4-17.16-4-4.63.39-22.82,9-28.63,22.28,0,0-8.32,19.6,9.56,32.06-2.15-13.17-2.06-21.76,3.12-30.38,3.34,1.12,11.46.25,14.19-1,3-1.39,6.92-2.57,9.55-4.57" transform="translate(-63.35 -43.7)"/><path class="cls-17" d="M445,488.62c0,1.19,2.27,2.14,5.06,2.14s5-.95,5-2.14-2.25-2.14-5-2.14S445,487.44,445,488.62Z" transform="translate(-63.35 -43.7)"/><path class="cls-17" d="M426.49,488.62c0,1.19,1.82,2.14,4.06,2.14s4.06-.95,4.06-2.14-1.81-2.14-4.06-2.14S426.49,487.44,426.49,488.62Z" transform="translate(-63.35 -43.7)"/><path class="cls-18" d="M431.48,480.45c1,.07,1.73,1.48,1.67,3.13s-.91,3-1.9,2.9-1.73-1.46-1.68-3.13S430.49,480.39,431.48,480.45Z" transform="translate(-63.35 -43.7)"/><path class="cls-18" d="M448.71,480.44c1,.06,1.74,1.47,1.67,3.14s-.91,3-1.89,2.9-1.75-1.47-1.68-3.13S447.73,480.39,448.71,480.44Z" transform="translate(-63.35 -43.7)"/><path class="cls-16" d="M438.51,481c.76,2.25-1.28,4.6-2.7,6-.69.69-1.58,1.71-1.15,2.78.85,2.12,3.74,3,5.78,3.47.21,0,1.61.08,1.28-.49a1,1,0,0,0-1.68,0l1.07-.28c-2.49-.49-7-2.16-4.27-5.19,1.39-1.54,3.71-4.23,2.28-6.4-.11-.17-.7-.17-.61.07Z" transform="translate(-63.35 -43.7)"/><path class="cls-19" d="M439.34,500.76a6.15,6.15,0,0,1-4.44-1.93.77.77,0,0,1,0-1.1.78.78,0,0,1,1.11,0c3.11,3.13,6.78.3,6.93.17a.79.79,0,0,1,1.11.13.78.78,0,0,1-.13,1.1A7.71,7.71,0,0,1,439.34,500.76Z" transform="translate(-63.35 -43.7)"/><path class="cls-38" d="M454.13,479c-3-2.66-8.28-3.21-11,.17-.48.58,1.4.63,1.68.48a23,23,0,0,1,2.82-1.6c1.86-.7,3.79.29,5.33,1.29.3.18,1.69.1,1.2-.34Z" transform="translate(-63.35 -43.7)"/><path class="cls-38" d="M427.75,478.57a5.89,5.89,0,0,1,3.9-.59,14.47,14.47,0,0,1,3.07,1.6c.26.15,2.15.12,1.68-.47-2.28-2.79-6.93-2.83-9.73-.95-.51.35.83.51,1.08.41Z" transform="translate(-63.35 -43.7)"/><path class="cls-35" d="M461.46,495.3c-2.49,6.12-5.61,13.16-2.37,19.61,2.48,4.9,6.33,9.13,12.22,7.69s9.16-7.16,14.29-9.92c4.15-2.24,12.27-2.36,14.91-7.47,1.69-3.22.38-8.29-.79-11.52-.1-.29-.22-.57-.33-.87a28.92,28.92,0,0,1-4.28-3.8c-4.95-5.45-2.92-13.21-6.67-19.63-1.49-2.55-4.06-4.27-5.59-6.57s-2.05-5.19-3.93-7.54c-4.25-5.3-8.05-6.68-14.41-5.48s-9.34,2.34-10.89,8.79c-1.76,7.31-.86,14,4.23,19.85S464.55,487.69,461.46,495.3Z" transform="translate(-63.35 -43.7)"/><path class="cls-39" d="M493.25,601.36a.81.81,0,0,1-.75-.55c-2.11-6.94-3.6-12.81-5-18.22-.36-1.47-.77-2.92-1.16-4.4-.71-2.59-1.45-5.27-2-8-.8-3.94-2.66-17.3,6.69-22.8a.79.79,0,0,1,.8,1.36c-8.46,5-6.7,17.44-6,21.14.53,2.62,1.25,5.28,2,7.84.39,1.48.8,3,1.16,4.43,1.36,5.39,2.85,11.23,5,18.14a.77.77,0,0,1-.52,1A.64.64,0,0,1,493.25,601.36Z" transform="translate(-63.35 -43.7)"/><path class="cls-39" d="M446.63,545.94a26.14,26.14,0,0,1-8.19-1.21c-3.4-1.17-5.73-3.06-6.92-5.63a.79.79,0,0,1,.38-1,.8.8,0,0,1,1.06.38c1,2.17,3,3.78,6,4.79,5.77,2,14,1.16,17.85-.82a23.36,23.36,0,0,0,7-5.13.78.78,0,1,1,1.19,1,24.5,24.5,0,0,1-7.5,5.5A25.43,25.43,0,0,1,446.63,545.94Z" transform="translate(-63.35 -43.7)"/><path class="cls-39" d="M430.26,612.1a16.24,16.24,0,0,1-7.06-1.43,7,7,0,0,1-3.88-4.39.79.79,0,0,1,.54-1,.77.77,0,0,1,1,.54,5.55,5.55,0,0,0,3.08,3.41c3.51,1.75,9.11,1.53,12.28.32a18.09,18.09,0,0,0,2.37-1.23,12.74,12.74,0,0,1,4.91-2,6.87,6.87,0,0,1,4.22,1.44c1,.66,1.93,1.21,2.85,1a.78.78,0,1,1,.3,1.54c-1.5.3-2.77-.48-4-1.24a5.47,5.47,0,0,0-3.25-1.2,11.61,11.61,0,0,0-4.28,1.78,19.13,19.13,0,0,1-2.58,1.32A18.78,18.78,0,0,1,430.26,612.1Z" transform="translate(-63.35 -43.7)"/><path class="cls-39" d="M461.7,645.09a.69.69,0,0,1-.49-.19.74.74,0,0,1-.16-1,11,11,0,0,0,.65-1.2c.16-.3.3-.61.46-.88a.78.78,0,0,1,1.07-.3.18.18,0,0,1,.08,0c2.16-2.21,4.61-4.52,7.52-5.53,2.54-.88,4.86-.39,7.11.11a21.6,21.6,0,0,0,3.76.56,7.2,7.2,0,0,0,5.52-2c3.88-3.79,3.88-12.2,3.88-17.23a.79.79,0,1,1,1.57,0c0,5.28,0,14.11-4.35,18.36a8.88,8.88,0,0,1-6.64,2.43,19.87,19.87,0,0,1-4.08-.6c-2.12-.45-4.13-.88-6.26-.15-2.92,1-5.47,3.65-7.7,6-.48.48-.93,1-1.39,1.41A.82.82,0,0,1,461.7,645.09Z" transform="translate(-63.35 -43.7)"/><path class="cls-26" d="M301.78,652c-2.11-12.17-3.79-19.72-3.79-19.72L324.46,631a177,177,0,0,1,3.14,21Z" transform="translate(-63.35 -43.7)"/><polygon class="cls-26" points="142.05 499.48 155.55 489.6 184.53 489.6 200.57 499.48 142.05 499.48"/><polygon class="cls-26" points="97 608.29 108.6 550.76 138.81 563.38 126.05 608.29 97 608.29"/><path class="cls-26" d="M173.36,652H145.62c-14.27-28.33-19.41-59-19.41-59-5.07-8.28,10.11-16.55,12.66-18l-.68,16.06C145.32,615.11,161.91,638.1,173.36,652Z" transform="translate(-63.35 -43.7)"/><path class="cls-26" d="M217.58,538.82h30.31V505.74H217.58S220.82,531.8,217.58,538.82Z" transform="translate(-63.35 -43.7)"/><path class="cls-27" d="M247.89,520.73v-15H217.58s.92,7.37,1.29,15.31C227.58,525.14,238.6,524.54,247.89,520.73Z" transform="translate(-63.35 -43.7)"/><path class="cls-40" d="M200.12,479.5c1.54,4.94,3.07,10.65,6.07,15.11,3.42,5.08,9,5.85,12,.06,2.85-5.46,3.3-12.43,2.7-18.3-.32-3.21-1.12-6.88-3.91-9.25-4.37-3.72-11.42-3.79-15.16-.08C202.28,466.55,198.76,475.15,200.12,479.5Z" transform="translate(-63.35 -43.7)"/><path class="cls-26" d="M202.21,487.93a83.38,83.38,0,0,0,1.39,17.27c1.11,5.75,2.39,16.49,8.59,19.35a13.26,13.26,0,0,0,5.8,1c8.72.11,18.41-4.94,24.42-11,11.19-11.22,13.4-40.35,4-52.43-8.62-11-38.94-8-42.21,8.26A101.59,101.59,0,0,0,202.21,487.93Z" transform="translate(-63.35 -43.7)"/><path class="cls-26" d="M202.21,487.93a83.38,83.38,0,0,0,1.39,17.27c1.11,5.75,2.39,16.49,8.59,19.35a13.26,13.26,0,0,0,5.8,1c8.72.11,18.41-4.94,24.42-11,11.19-11.22,13.4-40.35,4-52.43-8.62-11-38.94-8-42.21,8.26A101.59,101.59,0,0,0,202.21,487.93Z" transform="translate(-63.35 -43.7)"/><path class="cls-27" d="M244.75,511.77c9.12-12.66,10.36-38.46,1.62-49.64a12.86,12.86,0,0,0-1.62-1.69l1.88,23.29-1.88,7Z" transform="translate(-63.35 -43.7)"/><path class="cls-18" d="M208.28,488.92a1.47,1.47,0,1,1-1.45-1.78A1.64,1.64,0,0,1,208.28,488.92Z" transform="translate(-63.35 -43.7)"/><path class="cls-18" d="M225,489.6a1.47,1.47,0,1,1-1.42-1.77A1.64,1.64,0,0,1,225,489.6Z" transform="translate(-63.35 -43.7)"/><path class="cls-29" d="M248.74,488.22c1.38-1.28,2.56-4.87,5-3.6.24.12.52.14.75.25,1,.4,1.08,1.34,1.42,2.16a19.42,19.42,0,0,1,1,4.49c0,.06.22.06.22,0,.37-2.69-.14-7-2.92-8.28s-6.94,1.82-6.9,4.78c0,.56,1.24.45,1.51.2Z" transform="translate(-63.35 -43.7)"/><path class="cls-40" d="M245.58,484.53c.09,1.5-1.29,5.68-.92,7s1.63,1.7,2.06.66c2.2-2,1.9-7.36,5.52-7.87,3.95-.55,4.71,5.22,4.6,7.87,1.86-3.68,3.87-7.69,3.89-11.61,0-2.09,0-7.18,0-10.95-.07-11.5-2-15.05-14.76-14.24-4,.24-8.51,2.4-10.26,6.19-1.88,4.07.74,7.5,3.41,10.41C242.45,475.6,245.33,479.36,245.58,484.53Z" transform="translate(-63.35 -43.7)"/><path class="cls-26" d="M255.61,484.65c3.79,3.82,1.38,14.89-6.26,18.48-1.88-2.1-1.78-7.75-2-10.55s-.28-5.36,1.4-7.68C249.27,484.19,252.82,481.83,255.61,484.65Z" transform="translate(-63.35 -43.7)"/><path class="cls-27" d="M249.39,492.22c-.07.52-.5,1.65-.08,2.09a2.72,2.72,0,0,0,1.16.81,1.9,1.9,0,0,0,2.26-.88,7.31,7.31,0,0,0,.71-2.86,2.27,2.27,0,0,0-.4-2,.72.72,0,0,0-.84,0c-.76.77-.55,2.18-.68,3.16a3.66,3.66,0,0,1-.62,1.8c-.11.14-.15.07.14.06s-.06-.11-.21-.21c-.5-.4-.32-1.43-.35-2,0-.37-1-.37-1.09,0Z" transform="translate(-63.35 -43.7)"/><path class="cls-27" d="M251.59,489.66c1-1.34,2,0,2.28,1a5.74,5.74,0,0,1,.06,1.8c-.12,1.24-1,2.25-1.43,3.4-.09.29.54.29.7.18,2.09-1.29,3.12-4.44,1.71-6.59-.86-1.33-3.52-1.52-4.19.1-.14.36.71.32.87.13Z" transform="translate(-63.35 -43.7)"/><path class="cls-41" d="M203.8,470.1c13.15,3.59,28.66,2.29,40.67-4.32a78.78,78.78,0,0,0,9.42-6.54c3.65-2.76-2.81-8.94-4.76-10.33-9.32-6.69-22-4-31.79,0-4.85,2-12.41,5-18.61,2.61a5.81,5.81,0,0,0,3.76,5.82,11.42,11.42,0,0,1-8.84-2.44S191.4,466.72,203.8,470.1Z" transform="translate(-63.35 -43.7)"/><path class="cls-20" d="M209.61,505.5c.78,3.15,3,5.44,5.6,5.44s4.81-2.29,5.59-5.44Z" transform="translate(-63.35 -43.7)"/><path class="cls-27" d="M211.7,490.19c-.9,1.71-1.51,3.53-2.33,5.29a15.21,15.21,0,0,0-1.65,3.88c-.31,1.9,3.27,3.64,4.71,3.92,1.28.24,2.57-1,.73-1.3a6.63,6.63,0,0,1-2.58-1.59c-1.58-1.3-.82-2.47-.14-4,.91-2,1.87-4,1.58-6.2,0-.12-.28-.12-.32,0Z" transform="translate(-63.35 -43.7)"/><path class="cls-42" d="M203.43,485.51a.79.79,0,0,1-.52-.2.77.77,0,0,1,0-1.07,6,6,0,0,1,4.6-1.6,4.74,4.74,0,0,1,3.47,1.47.75.75,0,0,1-.11,1.06.74.74,0,0,1-1-.12,3.41,3.41,0,0,0-2.39-.91,4.48,4.48,0,0,0-3.44,1.15A.75.75,0,0,1,203.43,485.51Z" transform="translate(-63.35 -43.7)"/><path class="cls-42" d="M227.11,486.83a.76.76,0,0,1-.55-.23c-1.73-1.83-4.4-2.07-7-.62a.74.74,0,0,1-1-.28.73.73,0,0,1,.28-1c3.16-1.79,6.61-1.44,8.82.88a.78.78,0,0,1,0,1.07A.79.79,0,0,1,227.11,486.83Z" transform="translate(-63.35 -43.7)"/><path class="cls-43" d="M289.42,614.7c.34,4.56.71,9.12,1,13.69.57,7.87,1.19,15.74,1.8,23.6H177.56c.27-3.2.54-6.39.82-9.59L160.17,632l11.88-69.07a24.83,24.83,0,0,1,11.27-15.1L218.9,533.3s6.07,18.14,29,0l38.22,16.05s20.42,6.52,23.92,17.54l23.06,64.79-41.78,7.79Z" transform="translate(-63.35 -43.7)"/><path class="cls-44" d="M291.69,640.17a.76.76,0,0,1-.6-.32c-3.41-4.75-4.93-11.89-6.26-18.18-.39-1.84-.77-3.61-1.18-5.22-3.2-12.83-4.57-26-5.49-37.18-.7-8.71-1.77-21.87,5.14-30.38a.73.73,0,0,1,1.05-.11.77.77,0,0,1,.11,1.06c-6.53,8-5.48,20.84-4.8,29.31.91,11.13,2.27,24.21,5.45,36.93.41,1.63.79,3.42,1.19,5.28,1.3,6.15,2.77,13.12,6,17.61a.76.76,0,0,1-.17,1A.74.74,0,0,1,291.69,640.17Z" transform="translate(-63.35 -43.7)"/><path class="cls-44" d="M181.18,631.89h0a.75.75,0,0,1-.75-.75v-4.58c0-5.35,0-10.86.1-16.29.52-24.35,2.23-49.56,16.61-66.81a.74.74,0,0,1,1.07-.11.77.77,0,0,1,.09,1.06c-14.07,16.9-15.75,41.81-16.25,65.89-.12,5.41-.12,10.93-.11,16.26v4.58A.75.75,0,0,1,181.18,631.89Z" transform="translate(-63.35 -43.7)"/><path class="cls-26" d="M126.66,552.38c-5.93.49,1.91,15.52,2,18.69-1.54-3.55-6.41-17.48-10.31-17-2.29.5,3.76,12.28,4.43,14.7-1.32-1.92-5.32-10.32-7.92-9.36-1.65,1.11,2.74,9.06,3.65,11.69-.54-.46-4.61-7.85-5.71-6.43s.85,6.81,2.07,9.5c5.49,12.07,11.19,25.58,18.19,19.77,5.23-4.36,8-6.9,9.51-26.45.26-3.37-5.19-.49-7.13,6.11C133.89,572.88,127.37,552.31,126.66,552.38Z" transform="translate(-63.35 -43.7)"/><path class="cls-27" d="M134.31,577.48l.34-.41c.17-.23-.69-.36-.89-.11a4.5,4.5,0,0,0-.3.42c.28,0,.57-.08.87-.12a1.28,1.28,0,0,0-1.37-.07,4,4,0,0,0-.6.91c-.28.47-.83.53-1.15.94-1.58,2-.73,5.37.5,7.4.21.36,1.55.34,1.36-.19a13.37,13.37,0,0,1-1.29-5.06,2.83,2.83,0,0,1,1.27-2.27c.34-.31,1-1.07.54-1.29.2.09.74.15.87-.12s.13-.29.19-.44c.11-.34-.79-.4-.89-.11,0,.14-.09.29-.15.43s.58.26.7.09Z" transform="translate(-63.35 -43.7)"/><path class="cls-44" d="M233.4,548.11c-.6,0-1.21,0-1.82-.09s-1-.07-1.5-.07a16.24,16.24,0,0,1-6.29-1.56,9.58,9.58,0,0,1-2.86-1.57,14.19,14.19,0,0,0-1.71-1.09,7.81,7.81,0,0,1-3.3-2.88.86.86,0,0,1-.12-.43,1.12,1.12,0,0,0-.13-.18,1.17,1.17,0,0,1-.78-.41.75.75,0,0,1,1-1.09,1.26,1.26,0,0,1,.79.41,2.25,2.25,0,0,1,.57,1,6.12,6.12,0,0,0,2.62,2.24,16.66,16.66,0,0,1,1.9,1.19,8.32,8.32,0,0,0,2.46,1.38,15.31,15.31,0,0,0,5.82,1.48c.51,0,1.06,0,1.62.08a10.2,10.2,0,0,0,3.09-.06,15.8,15.8,0,0,0,5.43-1.8,14.26,14.26,0,0,1,1.43-.6c.44-.19.9-.35,1.25-.54a6.15,6.15,0,0,0,2.44-1.74.72.72,0,0,1,.2-.14c.18-.09.4-.18.61-.29a6,6,0,0,0,1.83-1.08,6.28,6.28,0,0,0,.92-1.06.7.7,0,0,1,.74-.71.78.78,0,0,1,.74.8c0,.57-.47,1.16-1.35,2a6.93,6.93,0,0,1-2.27,1.38c-.15.09-.31.15-.44.22a7,7,0,0,1-2.84,2c-.29.16-.79.36-1.27.56s-.9.35-1.26.52a17.15,17.15,0,0,1-5.83,1.95A7,7,0,0,1,233.4,548.11Zm-17.46-9.33-.52.52.57-.49Z" transform="translate(-63.35 -43.7)"/><rect class="cls-45" x="523.32" y="120.62" width="278.31" height="486.8"/><rect class="cls-46" x="523.32" y="120.62" width="278.31" height="38.57"/><path class="cls-47" d="M624.72,183.61A15.64,15.64,0,1,1,609.08,168,15.63,15.63,0,0,1,624.72,183.61Z" transform="translate(-63.35 -43.7)"/><path class="cls-20" d="M857.69,175.53a2.87,2.87,0,1,1-2.87-2.88A2.87,2.87,0,0,1,857.69,175.53Z" transform="translate(-63.35 -43.7)"/><path class="cls-20" d="M857.69,183.61a2.87,2.87,0,1,1-2.87-2.87A2.86,2.86,0,0,1,857.69,183.61Z" transform="translate(-63.35 -43.7)"/><path class="cls-20" d="M857.69,191.68a2.87,2.87,0,1,1-2.87-2.86A2.86,2.86,0,0,1,857.69,191.68Z" transform="translate(-63.35 -43.7)"/><path class="cls-20" d="M819.33,214.72H635.11A11.06,11.06,0,0,0,624,225.77V246a11.06,11.06,0,0,0,11.07,11H819.33a11.06,11.06,0,0,0,11.07-11V230.39l.06,0s-.25-10.73,7.36-13.1a3.11,3.11,0,0,0,2.11-2.6Z" transform="translate(-63.35 -43.7)"/><path class="cls-48" d="M625.3,266.07H809.51a11.06,11.06,0,0,1,11.07,11.05v20.21a11.07,11.07,0,0,1-11.07,11.07H625.3a11.07,11.07,0,0,1-11.06-11.07V281.74l-.06,0s.25-10.71-7.35-13.1a3.08,3.08,0,0,1-2.12-2.6Z" transform="translate(-63.35 -43.7)"/><path class="cls-20" d="M819.33,324H635.11A11.06,11.06,0,0,0,624,335v20.21a11.07,11.07,0,0,0,11.07,11.06H819.33a11.06,11.06,0,0,0,11.07-11.06V339.63l.06,0s-.25-10.73,7.36-13.08a3.13,3.13,0,0,0,2.11-2.62Z" transform="translate(-63.35 -43.7)"/><path class="cls-48" d="M625.3,375.3H809.51a11.06,11.06,0,0,1,11.07,11.06v20.2a11.07,11.07,0,0,1-11.07,11.07H625.3a11.07,11.07,0,0,1-11.06-11.07V391l-.06,0s.25-10.71-7.35-13.08a3.12,3.12,0,0,1-2.12-2.62Z" transform="translate(-63.35 -43.7)"/><path class="cls-20" d="M819.33,434H635.11A11.07,11.07,0,0,0,624,445v20.21a11.08,11.08,0,0,0,11.07,11.07H819.33a11.07,11.07,0,0,0,11.07-11.07V449.65l.06,0s-.25-10.71,7.36-13.08a3.13,3.13,0,0,0,2.11-2.62Z" transform="translate(-63.35 -43.7)"/><path class="cls-48" d="M625.3,485.32H809.51a11.06,11.06,0,0,1,11.07,11.06v20.21a11.06,11.06,0,0,1-11.07,11.07H625.3a11.06,11.06,0,0,1-11.06-11.07V501l-.06,0s.25-10.72-7.35-13.09a3.12,3.12,0,0,1-2.12-2.62Z" transform="translate(-63.35 -43.7)"/><path class="cls-20" d="M819.33,544H635.11A11.07,11.07,0,0,0,624,555.06v20.2a11.07,11.07,0,0,0,11.07,11.07H819.33a11.07,11.07,0,0,0,11.07-11.07V559.67s0,0,.06,0-.25-10.72,7.36-13.09a3.13,3.13,0,0,0,2.11-2.62Z" transform="translate(-63.35 -43.7)"/><path class="cls-48" d="M625.3,595.35H809.51a11.06,11.06,0,0,1,11.07,11.07v20.19a11.06,11.06,0,0,1-11.07,11.07H625.3a11.06,11.06,0,0,1-11.06-11.07V611l-.06,0s.25-10.72-7.35-13.08a3.14,3.14,0,0,1-2.12-2.62Z" transform="translate(-63.35 -43.7)"/></svg>